<svg width="46" height="30" viewBox="0 0 46 30" fill="none" xmlns="http://www.w3.org/2000/svg">
<g clip-path="url(#clip0_755_10459)">
<path d="M25.4445 18.7712H20.4121V9.68384H25.4445V18.7712Z" fill="#6C6BBD"/>
<path d="M32.0548 17.8071V17.583H31.9967L31.9294 17.737L31.8625 17.583H31.804V17.8071H31.8453V17.6382L31.9082 17.784H31.951L32.0139 17.6378V17.8071H32.0548ZM31.6859 17.8071V17.6213H31.7604V17.5834H31.5703V17.6213H31.6449V17.8071H31.6859Z" fill="#0099DF"/>
<path d="M29.5396 22.7956V22.8335H29.5744C29.582 22.8335 29.5886 22.8316 29.593 22.8287C29.5977 22.8258 29.6003 22.8206 29.6003 22.8144C29.6003 22.8082 29.5977 22.8034 29.593 22.8004C29.5886 22.7971 29.582 22.7956 29.5744 22.7956H29.5396ZM29.5747 22.7692C29.5926 22.7692 29.6065 22.7733 29.6164 22.7813C29.6263 22.7894 29.631 22.8004 29.631 22.8144C29.631 22.8262 29.6274 22.8357 29.6193 22.8434C29.6117 22.8507 29.6003 22.8555 29.586 22.8574L29.6321 22.9106H29.5963L29.5535 22.8577H29.5396V22.9106H29.5096V22.7692H29.5747ZM29.5656 22.9591C29.582 22.9591 29.5974 22.9562 29.6113 22.95C29.6255 22.9437 29.638 22.9353 29.6486 22.9246C29.6592 22.914 29.6676 22.9014 29.6738 22.8867C29.6797 22.8724 29.6829 22.857 29.6829 22.8405C29.6829 22.8239 29.6797 22.8085 29.6738 22.7942C29.6676 22.7798 29.6592 22.767 29.6486 22.7564C29.638 22.7457 29.6255 22.7372 29.6113 22.7313C29.5974 22.7251 29.582 22.7221 29.5656 22.7221C29.5491 22.7221 29.5334 22.7251 29.5191 22.7313C29.5045 22.7372 29.4917 22.7457 29.4811 22.7564C29.4705 22.767 29.4621 22.7798 29.4562 22.7942C29.45 22.8085 29.4471 22.8239 29.4471 22.8405C29.4471 22.857 29.45 22.8724 29.4562 22.8867C29.4621 22.9014 29.4705 22.914 29.4811 22.9246C29.4917 22.9353 29.5045 22.9437 29.5191 22.95C29.5334 22.9562 29.5491 22.9591 29.5656 22.9591ZM29.5656 22.688C29.5871 22.688 29.6069 22.692 29.6255 22.7001C29.6445 22.7078 29.6607 22.7189 29.6749 22.7328C29.6888 22.7464 29.6998 22.7626 29.7078 22.7813C29.7159 22.7997 29.7199 22.8195 29.7199 22.8405C29.7199 22.8614 29.7159 22.8813 29.7078 22.8996C29.6998 22.918 29.6888 22.9342 29.6749 22.9478C29.6607 22.9617 29.6445 22.9728 29.6255 22.9808C29.6069 22.9889 29.5871 22.993 29.5656 22.993C29.5436 22.993 29.5235 22.9889 29.5045 22.9808C29.4855 22.9728 29.4691 22.9617 29.4551 22.9478C29.4412 22.9342 29.4302 22.918 29.4222 22.8996C29.4142 22.8813 29.4102 22.8614 29.4102 22.8405C29.4102 22.8195 29.4142 22.7997 29.4222 22.7813C29.4302 22.7626 29.4412 22.7464 29.4551 22.7328C29.4691 22.7189 29.4855 22.7078 29.5045 22.7001C29.5235 22.692 29.5436 22.688 29.5656 22.688Z" fill="#231F20"/>
<path d="M27.1408 21.3373C27.2077 21.3373 27.3039 21.3502 27.3774 21.3792L27.275 21.6937C27.2048 21.6647 27.1346 21.6552 27.0673 21.6552C26.8501 21.6552 26.7415 21.7963 26.7415 22.0498V22.9103H26.4091V21.3759H26.7382V21.5622C26.8245 21.4274 26.9492 21.3373 27.1408 21.3373ZM25.9129 21.6809H25.3698V22.3742C25.3698 22.5282 25.4239 22.6311 25.5903 22.6311C25.6766 22.6311 25.7852 22.6021 25.884 22.5444L25.9798 22.8299C25.8745 22.9037 25.7084 22.9489 25.5647 22.9489C25.1716 22.9489 25.0345 22.7369 25.0345 22.3805V21.6809H24.7244V21.3759H25.0345V20.9104H25.3698V21.3759H25.9129V21.6809ZM21.6603 22.0083C21.6958 21.7867 21.8296 21.6357 22.0662 21.6357C22.2801 21.6357 22.4176 21.7705 22.4527 22.0083H21.6603ZM22.798 22.1431C22.7947 21.6647 22.5006 21.3373 22.0724 21.3373C21.6252 21.3373 21.3122 21.6647 21.3122 22.1431C21.3122 22.6307 21.638 22.9486 22.0951 22.9486C22.3251 22.9486 22.5358 22.8909 22.7212 22.7336L22.558 22.4863C22.4305 22.5892 22.2673 22.6469 22.1141 22.6469C21.9002 22.6469 21.7053 22.5473 21.6574 22.2714H22.7913C22.7947 22.2295 22.798 22.1879 22.798 22.1431ZM24.2577 21.7676C24.1653 21.7096 23.9769 21.6357 23.782 21.6357C23.5999 21.6357 23.4913 21.7033 23.4913 21.8158C23.4913 21.9182 23.6061 21.9473 23.7498 21.9664L23.9063 21.9888C24.2387 22.0373 24.4398 22.1784 24.4398 22.4481C24.4398 22.7402 24.1843 22.9489 23.7436 22.9489C23.4942 22.9489 23.2642 22.8846 23.0821 22.7497L23.2386 22.4896C23.3505 22.5763 23.5169 22.6502 23.7469 22.6502C23.9736 22.6502 24.095 22.583 24.095 22.4639C24.095 22.3776 24.0087 22.3291 23.8266 22.3037L23.6701 22.2813C23.3282 22.2328 23.1428 22.0788 23.1428 21.8286C23.1428 21.5236 23.3922 21.3373 23.7787 21.3373C24.0215 21.3373 24.242 21.3921 24.4015 21.4979L24.2577 21.7676ZM28.3553 21.6545C28.2869 21.6545 28.2236 21.6666 28.1648 21.6905C28.1062 21.7147 28.0554 21.7485 28.0126 21.7919C27.9698 21.8352 27.9362 21.8874 27.9117 21.948C27.8872 22.0086 27.8751 22.0755 27.8751 22.1482C27.8751 22.2214 27.8872 22.2879 27.9117 22.3485C27.9362 22.4091 27.9698 22.4613 28.0126 22.5047C28.0554 22.5481 28.1062 22.5819 28.1648 22.6061C28.2236 22.6303 28.2869 22.6421 28.3553 22.6421C28.4236 22.6421 28.4872 22.6303 28.5458 22.6061C28.6046 22.5819 28.6558 22.5481 28.6987 22.5047C28.7421 22.4613 28.7758 22.4091 28.8007 22.3485C28.8252 22.2879 28.8373 22.2214 28.8373 22.1482C28.8373 22.0755 28.8252 22.0086 28.8007 21.948C28.7758 21.8874 28.7421 21.8352 28.6987 21.7919C28.6558 21.7485 28.6046 21.7147 28.5458 21.6905C28.4872 21.6666 28.4236 21.6545 28.3553 21.6545ZM28.3553 21.3373C28.4737 21.3373 28.5835 21.3579 28.6844 21.3995C28.7853 21.4406 28.8727 21.4975 28.9462 21.5699C29.0201 21.6423 29.0775 21.7279 29.1192 21.8264C29.1609 21.9252 29.1817 22.0325 29.1817 22.1482C29.1817 22.264 29.1609 22.3713 29.1192 22.4701C29.0775 22.5686 29.0201 22.6546 28.9462 22.727C28.8727 22.7994 28.7853 22.856 28.6844 22.8974C28.5835 22.9386 28.4737 22.9592 28.3553 22.9592C28.2368 22.9592 28.1271 22.9386 28.0261 22.8974C27.9252 22.856 27.8385 22.7994 27.7654 22.727C27.6923 22.6546 27.6348 22.5686 27.5932 22.4701C27.5515 22.3713 27.5306 22.264 27.5306 22.1482C27.5306 22.0325 27.5515 21.9252 27.5932 21.8264C27.6348 21.7279 27.6923 21.6423 27.7654 21.5699C27.8385 21.4975 27.9252 21.4406 28.0261 21.3995C28.1271 21.3579 28.2368 21.3373 28.3553 21.3373ZM19.7192 22.1431C19.7192 21.8734 19.8952 21.6519 20.1826 21.6519C20.4572 21.6519 20.6426 21.8639 20.6426 22.1431C20.6426 22.4224 20.4572 22.634 20.1826 22.634C19.8952 22.634 19.7192 22.4128 19.7192 22.1431ZM20.9556 22.1431V21.3759H20.6236V21.5622C20.5179 21.424 20.3585 21.3373 20.1412 21.3373C19.713 21.3373 19.3777 21.6742 19.3777 22.1431C19.3777 22.6116 19.713 22.9489 20.1412 22.9489C20.3585 22.9489 20.5179 22.8622 20.6236 22.724V22.9103H20.9556V22.1431ZM19.0837 22.9103V21.9473C19.0837 21.5846 18.8537 21.3407 18.4832 21.3373C18.2883 21.334 18.0868 21.395 17.9464 21.6103C17.8411 21.4402 17.6747 21.3373 17.4414 21.3373C17.2787 21.3373 17.1189 21.3855 16.9941 21.5652V21.3759H16.6621V22.9103H16.9974V22.0597C16.9974 21.7933 17.1445 21.6519 17.3712 21.6519C17.5917 21.6519 17.7036 21.7963 17.7036 22.0564V22.9103H18.0389V22.0597C18.0389 21.7933 18.1925 21.6519 18.4126 21.6519C18.6397 21.6519 18.7483 21.7963 18.7483 22.0564V22.9103H19.0837Z" fill="#9A9C9E"/>
<path d="M32.2318 14.2269C32.2318 17.4188 29.6569 20.0063 26.4806 20.0063C25.1389 20.0063 23.9043 19.5444 22.9258 18.7706C24.2638 17.7124 25.1228 16.0703 25.1228 14.2269C25.1228 12.3835 24.2638 10.7414 22.9258 9.68319C23.9043 8.90938 25.1389 8.44751 26.4806 8.44751C29.6569 8.44751 32.2318 11.035 32.2318 14.2269Z" fill="#0099DF"/>
<path d="M20.7339 14.2269C20.7339 12.3835 21.5929 10.7414 22.9306 9.68319C21.9524 8.90938 20.7178 8.44751 19.3761 8.44751C16.1998 8.44751 13.625 11.035 13.625 14.2269C13.625 17.4188 16.1998 20.0063 19.3761 20.0063C20.7178 20.0063 21.9524 19.5444 22.9306 18.7706C21.5929 17.7124 20.7339 16.0703 20.7339 14.2269Z" fill="#EB001B"/>
</g>
<rect x="1" y="0.5" width="44" height="29" rx="4.5" stroke="#E2E4EB"/>
<defs>
<clipPath id="clip0_755_10459">
<rect width="19" height="15" fill="white" transform="translate(13.5 8)"/>
</clipPath>
</defs>
</svg>
