<svg width="46" height="30" viewBox="0 0 46 30" fill="none" xmlns="http://www.w3.org/2000/svg">
<g clip-path="url(#clip0_755_10451)">
<path d="M32.1116 22.7969V22.8359H32.1471C32.1549 22.8359 32.1617 22.834 32.1665 22.831C32.171 22.828 32.1736 22.8226 32.1736 22.8162C32.1736 22.8097 32.171 22.8048 32.1665 22.8018C32.1617 22.7984 32.1549 22.7969 32.1471 22.7969H32.1116ZM32.1474 22.7696C32.1658 22.7696 32.18 22.7737 32.1901 22.7821C32.2001 22.7904 32.205 22.8018 32.205 22.8162C32.205 22.8283 32.2012 22.8382 32.193 22.8461C32.1852 22.8537 32.174 22.8586 32.159 22.8605L32.2061 22.9155H32.1695L32.1258 22.8609H32.1116V22.9155H32.081V22.7696H32.1474ZM32.1381 22.9658C32.1549 22.9658 32.1706 22.9624 32.1848 22.956C32.1994 22.9496 32.212 22.9409 32.2229 22.9298C32.2338 22.9189 32.2423 22.906 32.2487 22.8908C32.2547 22.8761 32.258 22.8601 32.258 22.8431C32.258 22.8261 32.2547 22.8101 32.2487 22.7954C32.2423 22.7806 32.2338 22.7673 32.2229 22.7563C32.212 22.7453 32.1994 22.7366 32.1848 22.7302C32.1706 22.7241 32.1549 22.7211 32.1381 22.7211C32.1213 22.7211 32.1052 22.7241 32.0907 22.7302C32.0758 22.7366 32.0627 22.7453 32.0519 22.7563C32.041 22.7673 32.0325 22.7806 32.0265 22.7954C32.0201 22.8101 32.0172 22.8261 32.0172 22.8431C32.0172 22.8601 32.0201 22.8761 32.0265 22.8908C32.0325 22.906 32.041 22.9189 32.0519 22.9298C32.0627 22.9409 32.0758 22.9496 32.0907 22.956C32.1052 22.9624 32.1213 22.9658 32.1381 22.9658ZM32.1381 22.6859C32.1602 22.6859 32.1803 22.69 32.1997 22.6983C32.2188 22.7063 32.2353 22.7176 32.2498 22.7321C32.264 22.7461 32.2752 22.7628 32.2834 22.7821C32.2916 22.801 32.2957 22.8215 32.2957 22.8431C32.2957 22.8647 32.2916 22.8851 32.2834 22.9041C32.2752 22.923 32.264 22.9397 32.2498 22.9541C32.2353 22.9681 32.2188 22.9795 32.1997 22.9878C32.1803 22.9962 32.1602 23.0003 32.1381 23.0003C32.1157 23.0003 32.0952 22.9962 32.0758 22.9878C32.0564 22.9795 32.0396 22.9681 32.0253 22.9541C32.0112 22.9397 31.9999 22.923 31.9918 22.9041C31.9835 22.8851 31.9794 22.8647 31.9794 22.8431C31.9794 22.8215 31.9835 22.801 31.9918 22.7821C31.9999 22.7628 32.0112 22.7461 32.0253 22.7321C32.0396 22.7176 32.0564 22.7063 32.0758 22.6983C32.0952 22.69 32.1157 22.6859 32.1381 22.6859ZM17.589 22.1239C17.589 21.8457 17.7686 21.6173 18.0622 21.6173C18.3426 21.6173 18.5319 21.8359 18.5319 22.1239C18.5319 22.4119 18.3426 22.6305 18.0622 22.6305C17.7686 22.6305 17.589 22.402 17.589 22.1239ZM18.8516 22.1239V21.3327H18.5125V21.5248C18.405 21.3824 18.2418 21.2929 18.02 21.2929C17.5827 21.2929 17.2399 21.6408 17.2399 22.1239C17.2399 22.6074 17.5827 22.9549 18.02 22.9549C18.2418 22.9549 18.405 22.8655 18.5125 22.723V22.9151H18.8516V22.1239ZM30.3098 22.1239C30.3098 21.8457 30.4894 21.6173 30.783 21.6173C31.0638 21.6173 31.2527 21.8359 31.2527 22.1239C31.2527 22.4119 31.0638 22.6305 30.783 22.6305C30.4894 22.6305 30.3098 22.402 30.3098 22.1239ZM31.5728 22.1239V20.6973H31.2333V21.5248C31.1258 21.3824 30.9626 21.2929 30.7408 21.2929C30.3035 21.2929 29.9607 21.6408 29.9607 22.1239C29.9607 22.6074 30.3035 22.9549 30.7408 22.9549C30.9626 22.9549 31.1258 22.8655 31.2333 22.723V22.9151H31.5728V22.1239ZM23.0605 21.601C23.2789 21.601 23.4194 21.7401 23.4552 21.9848H22.646C22.6822 21.7563 22.8189 21.601 23.0605 21.601ZM23.0672 21.2929C22.6101 21.2929 22.2905 21.6306 22.2905 22.1239C22.2905 22.6271 22.6232 22.9549 23.09 22.9549C23.3249 22.9549 23.54 22.8954 23.7293 22.7332L23.5631 22.4782C23.4324 22.5839 23.2659 22.6438 23.1094 22.6438C22.8909 22.6438 22.6919 22.5411 22.643 22.2561H23.801C23.8044 22.2133 23.8077 22.1702 23.8077 22.1239C23.8044 21.6306 23.5041 21.2929 23.0672 21.2929ZM27.1614 22.1239C27.1614 21.8457 27.3411 21.6173 27.6346 21.6173C27.9151 21.6173 28.1044 21.8359 28.1044 22.1239C28.1044 22.4119 27.9151 22.6305 27.6346 22.6305C27.3411 22.6305 27.1614 22.402 27.1614 22.1239ZM28.424 22.1239V21.3327H28.085V21.5248C27.977 21.3824 27.8142 21.2929 27.5924 21.2929C27.1551 21.2929 26.8123 21.6408 26.8123 22.1239C26.8123 22.6074 27.1551 22.9549 27.5924 22.9549C27.8142 22.9549 27.977 22.8655 28.085 22.723V22.9151H28.424V22.1239ZM25.2465 22.1239C25.2465 22.604 25.5759 22.9549 26.0785 22.9549C26.3134 22.9549 26.4699 22.9018 26.6394 22.7662L26.4766 22.488C26.3493 22.5809 26.2156 22.6305 26.0684 22.6305C25.7977 22.6271 25.5987 22.4286 25.5987 22.1239C25.5987 21.8193 25.7977 21.6207 26.0684 21.6173C26.2156 21.6173 26.3493 21.6669 26.4766 21.7597L26.6394 21.4816C26.4699 21.346 26.3134 21.2929 26.0785 21.2929C25.5759 21.2929 25.2465 21.6438 25.2465 22.1239ZM29.6183 21.2929C29.4226 21.2929 29.2952 21.3858 29.2071 21.5248V21.3327H28.871V22.9151H29.2105V22.0281C29.2105 21.7662 29.3213 21.6207 29.5432 21.6207C29.6119 21.6207 29.6836 21.6306 29.7553 21.6605L29.8598 21.3361C29.7848 21.3062 29.6869 21.2929 29.6183 21.2929ZM20.5287 21.4585C20.3654 21.3494 20.1407 21.2929 19.8927 21.2929C19.4976 21.2929 19.2433 21.4851 19.2433 21.7995C19.2433 22.0576 19.4326 22.2167 19.7814 22.2664L19.9416 22.2895C20.1276 22.316 20.2153 22.3657 20.2153 22.4551C20.2153 22.5775 20.0914 22.6472 19.8599 22.6472C19.625 22.6472 19.4554 22.571 19.3412 22.4816L19.1813 22.7495C19.3673 22.8885 19.6022 22.9549 19.8565 22.9549C20.3068 22.9549 20.5679 22.7396 20.5679 22.4384C20.5679 22.1603 20.3625 22.0148 20.023 21.9651L19.8632 21.9416C19.7164 21.922 19.5988 21.8924 19.5988 21.7863C19.5988 21.6703 19.7097 21.601 19.8957 21.601C20.0947 21.601 20.2874 21.6772 20.3819 21.7367L20.5287 21.4585ZM24.9037 21.2929C24.708 21.2929 24.5807 21.3858 24.4929 21.5248V21.3327H24.1569V22.9151H24.4959V22.0281C24.4959 21.7662 24.6069 21.6207 24.8286 21.6207C24.8974 21.6207 24.9691 21.6306 25.0408 21.6605L25.1453 21.3361C25.0703 21.3062 24.9724 21.2929 24.9037 21.2929ZM22.01 21.3327H21.4555V20.8526H21.1127V21.3327H20.7964V21.6472H21.1127V22.3691C21.1127 22.7362 21.2531 22.9549 21.6542 22.9549C21.8013 22.9549 21.9708 22.9087 22.0784 22.8325L21.9805 22.5376C21.8793 22.5972 21.7684 22.6271 21.6803 22.6271C21.5108 22.6271 21.4555 22.521 21.4555 22.3623V21.6472H22.01V21.3327ZM16.94 22.9151V21.922C16.94 21.5479 16.7051 21.2963 16.3265 21.2929C16.1274 21.2895 15.922 21.3524 15.7783 21.5745C15.6707 21.399 15.5012 21.2929 15.2629 21.2929C15.0964 21.2929 14.9336 21.3426 14.8062 21.5279V21.3327H14.4668V22.9151H14.8092V22.0379C14.8092 21.7632 14.9593 21.6173 15.1912 21.6173C15.4164 21.6173 15.5303 21.7662 15.5303 22.0345V22.9151H15.8731V22.0379C15.8731 21.7632 16.0296 21.6173 16.2548 21.6173C16.4863 21.6173 16.5972 21.7662 16.5972 22.0345V22.9151H16.94Z" fill="#9A9C9E"/>
<path d="M32.321 17.6523V17.4211H32.2616L32.1929 17.5799L32.1246 17.4211H32.0648V17.6523H32.107V17.478L32.1712 17.6284H32.2149L32.2792 17.4776V17.6523H32.321ZM31.9442 17.6523V17.4605H32.0204V17.4215H31.8262V17.4605H31.9024V17.6523H31.9442Z" fill="#F79410"/>
<path d="M25.5687 18.6466H20.4297V9.27515H25.5687V18.6466Z" fill="#FF5F00"/>
<path d="M20.7594 13.9601C20.7594 12.0591 21.6366 10.3657 23.0026 9.27437C22.0037 8.47637 20.743 8.00006 19.3729 8.00006C16.1293 8.00006 13.5 10.6684 13.5 13.9601C13.5 17.2518 16.1293 19.9202 19.3729 19.9202C20.743 19.9202 22.0037 19.4439 23.0026 18.6459C21.6366 17.5546 20.7594 15.8612 20.7594 13.9601Z" fill="#EB001B"/>
<path d="M32.501 13.96C32.501 17.2517 29.8717 19.9201 26.6281 19.9201C25.258 19.9201 23.9973 19.4438 22.998 18.6458C24.3644 17.5545 25.2416 15.8611 25.2416 13.96C25.2416 12.059 24.3644 10.3656 22.998 9.27431C23.9973 8.4763 25.258 8 26.6281 8C29.8717 8 32.501 10.6684 32.501 13.96Z" fill="#F79E1B"/>
</g>
<rect x="1" y="0.5" width="44" height="29" rx="4.5" stroke="#E2E4EB"/>
<defs>
<clipPath id="clip0_755_10451">
<rect width="19" height="15" fill="white" transform="translate(13.5 8)"/>
</clipPath>
</defs>
</svg>
