<svg width="46" height="30" viewBox="0 0 46 30" fill="none" xmlns="http://www.w3.org/2000/svg">
<path d="M11.6474 11.4316C11.2292 11.1441 10.6835 11 10.0103 11H7.40408C7.1977 11 7.08369 11.1032 7.06203 11.3094L6.00332 17.9552C5.99232 18.0205 6.00865 18.0802 6.05217 18.1344C6.09543 18.1888 6.14985 18.2158 6.21502 18.2158H7.45297C7.6701 18.2158 7.78944 18.1129 7.81135 17.9064L8.1045 16.1147C8.11521 16.0279 8.15339 15.9573 8.21857 15.9029C8.28369 15.8486 8.36515 15.8132 8.46288 15.7969C8.56062 15.7808 8.65277 15.7726 8.7398 15.7726C8.82659 15.7726 8.9297 15.7781 9.04934 15.789C9.16868 15.7998 9.24476 15.8051 9.27737 15.8051C10.2112 15.8051 10.9442 15.542 11.4764 15.0151C12.0083 14.4885 12.2746 13.7583 12.2746 12.8242C12.2746 12.1835 12.0653 11.7193 11.6474 11.4314V11.4316ZM10.3036 13.4271C10.2491 13.8072 10.1081 14.0569 9.88011 14.1764C9.65203 14.296 9.32626 14.3555 8.90281 14.3555L8.36524 14.3718L8.64222 12.6288C8.66383 12.5095 8.73438 12.4497 8.85392 12.4497H9.16351C9.59766 12.4497 9.91277 12.5123 10.1082 12.637C10.3036 12.762 10.3688 13.0254 10.3036 13.4271Z" fill="#003087"/>
<path d="M39.1504 11H37.9451C37.8253 11 37.7548 11.0597 37.7333 11.1793L36.6745 17.9555L36.6582 17.9881C36.6582 18.0426 36.6799 18.094 36.7235 18.1429C36.7666 18.1916 36.8212 18.2161 36.8863 18.2161H37.9615C38.1675 18.2161 38.2816 18.1131 38.3036 17.9067L39.3623 11.2445V11.2283C39.3623 11.0762 39.2915 11.0002 39.1504 11.0002V11Z" fill="#009CDE"/>
<path d="M24.5899 13.6227C24.5899 13.5686 24.5681 13.5169 24.525 13.4682C24.4814 13.4193 24.4325 13.3947 24.3783 13.3947H23.1241C23.0044 13.3947 22.9067 13.4493 22.8308 13.5576L21.1042 16.0987L20.3875 13.6554C20.3329 13.4818 20.2136 13.3947 20.0292 13.3947H18.8073C18.7529 13.3947 18.704 13.4192 18.6609 13.4682C18.6173 13.5169 18.5957 13.5687 18.5957 13.6227C18.5957 13.6446 18.7016 13.9648 18.9133 14.5838C19.125 15.203 19.353 15.8708 19.5974 16.5876C19.8418 17.3042 19.9693 17.6845 19.9802 17.7276C19.0897 18.944 18.6446 19.5955 18.6446 19.6823C18.6446 19.8235 18.715 19.8941 18.8563 19.8941H20.1106C20.23 19.8941 20.3277 19.8399 20.4038 19.7312L24.5576 13.7367C24.5791 13.7152 24.5899 13.6774 24.5899 13.6227V13.6227Z" fill="#003087"/>
<path d="M36.2689 13.3948H35.0309C34.8787 13.3948 34.7867 13.574 34.7541 13.9324C34.4714 13.4982 33.956 13.2808 33.2065 13.2808C32.4247 13.2808 31.7595 13.574 31.2112 14.1604C30.6628 14.7468 30.3887 15.4366 30.3887 16.2292C30.3887 16.8701 30.576 17.3804 30.9505 17.7604C31.3252 18.1407 31.8273 18.3305 32.4574 18.3305C32.7723 18.3305 33.0926 18.2652 33.4184 18.135C33.7441 18.0047 33.9991 17.831 34.1841 17.6138C34.1841 17.6247 34.173 17.6734 34.1515 17.7602C34.1295 17.8472 34.1188 17.9126 34.1188 17.9557C34.1188 18.1296 34.1892 18.2163 34.3306 18.2163H35.4547C35.6607 18.2163 35.7803 18.1133 35.8128 17.9068L36.4807 13.6554C36.4914 13.5901 36.4752 13.5306 36.4318 13.4762C36.3882 13.422 36.334 13.3948 36.2689 13.3948ZM34.1432 16.6039C33.8663 16.8754 33.5323 17.011 33.1415 17.011C32.8264 17.011 32.5714 16.9243 32.3759 16.7504C32.1803 16.5771 32.0826 16.3381 32.0826 16.0337C32.0826 15.6322 32.2183 15.2926 32.4899 15.0157C32.761 14.7388 33.098 14.6004 33.4998 14.6004C33.8036 14.6004 34.0561 14.6899 34.2572 14.869C34.4579 15.0483 34.5587 15.2953 34.5587 15.6103C34.5586 16.0012 34.4201 16.3325 34.1432 16.6039Z" fill="#009CDE"/>
<path d="M17.7652 13.3948H16.5272C16.3749 13.3948 16.2828 13.574 16.2502 13.9324C15.957 13.4982 15.4411 13.2808 14.7027 13.2808C13.9209 13.2808 13.2556 13.574 12.7073 14.1604C12.1589 14.7468 11.8848 15.4366 11.8848 16.2292C11.8848 16.8701 12.0721 17.3804 12.4468 17.7604C12.8214 18.1407 13.3235 18.3305 13.9535 18.3305C14.2574 18.3305 14.5725 18.2652 14.8982 18.135C15.224 18.0047 15.4846 17.831 15.6801 17.6138C15.6365 17.744 15.6149 17.858 15.6149 17.9557C15.6149 18.1296 15.6855 18.2163 15.8267 18.2163H16.9506C17.1567 18.2163 17.2763 18.1133 17.3089 17.9068L17.9768 13.6554C17.9875 13.5901 17.9712 13.5306 17.9279 13.4762C17.8845 13.422 17.8302 13.3948 17.7652 13.3948ZM15.6394 16.6119C15.3625 16.8783 15.023 17.011 14.6214 17.011C14.3063 17.011 14.0538 16.9243 13.8639 16.7504C13.6738 16.5771 13.5789 16.3381 13.5789 16.0337C13.5789 15.6322 13.7145 15.2926 13.9861 15.0157C14.2574 14.7388 14.5941 14.6003 14.996 14.6003C15.2999 14.6003 15.5524 14.6899 15.7535 14.869C15.9543 15.0483 16.0548 15.2953 16.0548 15.6103C16.0548 16.0121 15.9164 16.3462 15.6394 16.6119Z" fill="#003087"/>
<path d="M30.1513 11.4316C29.7332 11.1441 29.1877 11 28.5144 11H25.9244C25.7071 11 25.5876 11.1032 25.566 11.3094L24.5072 17.9552C24.4962 18.0205 24.5126 18.0802 24.5561 18.1344C24.5992 18.1888 24.6538 18.2158 24.7189 18.2158H26.0546C26.1849 18.2158 26.2717 18.1453 26.3152 18.0041L26.6085 16.1147C26.6193 16.0279 26.6572 15.9573 26.7225 15.9029C26.7877 15.8486 26.869 15.8132 26.9669 15.7969C27.0645 15.7808 27.1567 15.7726 27.2438 15.7726C27.3306 15.7726 27.4336 15.7781 27.5532 15.789C27.6726 15.7998 27.7489 15.8051 27.7812 15.8051C28.7152 15.8051 29.4481 15.542 29.9803 15.0151C30.5124 14.4885 30.7784 13.7583 30.7784 12.8242C30.7785 12.1835 30.5693 11.7193 30.1513 11.4314V11.4316ZM28.4818 14.1111C28.2429 14.274 27.8844 14.3554 27.4068 14.3554L26.8854 14.3717L27.1623 12.6287C27.1839 12.5094 27.2545 12.4496 27.374 12.4496H27.6672C27.9061 12.4496 28.0961 12.4605 28.2375 12.4822C28.3784 12.504 28.5144 12.5717 28.6446 12.6857C28.775 12.7998 28.8401 12.9654 28.8401 13.1825C28.8401 13.6388 28.7205 13.9481 28.4818 14.1111Z" fill="#009CDE"/>
<rect x="1" y="0.5" width="44" height="29" rx="4.5" stroke="#E2E4EB"/>
</svg>
