<svg width="46" height="30" viewBox="0 0 46 30" fill="none" xmlns="http://www.w3.org/2000/svg">
<g clip-path="url(#clip0_755_10491)">
<path fill-rule="evenodd" clip-rule="evenodd" d="M25.7996 22.58C29.7764 22.58 32.9996 19.3165 32.9996 15.29C32.9996 11.2635 29.7764 8 25.7996 8C21.8228 8 18.5996 11.2635 18.5996 15.29C18.5996 19.3165 21.8228 22.58 25.7996 22.58ZM25.7996 18.125C27.346 18.125 28.5996 16.8557 28.5996 15.29C28.5996 13.7243 27.346 12.455 25.7996 12.455C24.2532 12.455 22.9996 13.7243 22.9996 15.29C22.9996 16.8557 24.2532 18.125 25.7996 18.125Z" fill="#8A42F9"/>
<path d="M18.6 10.4302H13L15.9864 20.1502H18.6V10.4302Z" fill="#8A42F9"/>
</g>
<rect x="1" y="0.5" width="44" height="29" rx="4.5" stroke="#E2E4EB"/>
<defs>
<clipPath id="clip0_755_10491">
<rect width="20" height="15" fill="white" transform="translate(13 8)"/>
</clipPath>
</defs>
</svg>
