<svg width="46" height="30" viewBox="0 0 46 30" fill="none" xmlns="http://www.w3.org/2000/svg">
<g clip-path="url(#clip0_755_10444)">
<path d="M20.6481 21.3246H17.8164L19.5876 10.0603H22.4191L20.6481 21.3246Z" fill="#00579F"/>
<path d="M30.9123 10.3355C30.3538 10.1076 29.4678 9.85596 28.3725 9.85596C25.5761 9.85596 23.6069 11.3897 23.5948 13.5826C23.5716 15.2005 25.0047 16.0991 26.0766 16.6385C27.1721 17.1898 27.5445 17.5495 27.5445 18.0409C27.5333 18.7956 26.6593 19.1434 25.844 19.1434C24.7134 19.1434 24.1077 18.964 23.1871 18.5442L22.8142 18.3642L22.418 20.8928C23.0822 21.204 24.3058 21.4802 25.5761 21.4923C28.5473 21.4923 30.4817 19.9823 30.5045 17.6454C30.5159 16.3632 29.7592 15.3806 28.1277 14.5777C27.1373 14.0623 26.5307 13.7148 26.5307 13.1874C26.5424 12.708 27.0437 12.217 28.1618 12.217C29.0823 12.1929 29.7587 12.4205 30.271 12.6483L30.5272 12.7679L30.9123 10.3355Z" fill="#00579F"/>
<path d="M34.676 17.334C34.9092 16.6869 35.8065 14.1824 35.8065 14.1824C35.7948 14.2065 36.0393 13.5233 36.1791 13.104L36.377 14.0746C36.377 14.0746 36.9132 16.7709 37.0297 17.334C36.5872 17.334 35.2353 17.334 34.676 17.334ZM38.1714 10.0603H35.9811C35.3056 10.0603 34.7925 10.2639 34.501 10.9949L30.2949 21.3245H33.2661C33.2661 21.3245 33.7553 19.9341 33.8604 19.6347C34.1864 19.6347 37.0768 19.6347 37.4961 19.6347C37.5774 20.0302 37.834 21.3245 37.834 21.3245H40.4558L38.1714 10.0603Z" fill="#00579F"/>
<path d="M15.4521 10.0603L12.679 17.7415L12.3759 16.1837C11.8632 14.3861 10.2553 12.4331 8.46094 11.4621L11.0011 21.3126H13.9955L18.4464 10.0603H15.4521Z" fill="#00579F"/>
<path d="M10.1025 10.0603H5.54661L5.5 10.2879C9.0539 11.2227 11.4076 13.4759 12.3746 16.1841L11.3842 11.0072C11.2211 10.2877 10.7201 10.084 10.1025 10.0603Z" fill="#FAA61A"/>
</g>
<rect x="1" y="0.5" width="44" height="29" rx="4.5" stroke="#E2E4EB"/>
<defs>
<clipPath id="clip0_755_10444">
<rect width="35" height="15" fill="white" transform="translate(5.5 8)"/>
</clipPath>
</defs>
</svg>
