<svg width="46" height="30" viewBox="0 0 46 30" fill="none" xmlns="http://www.w3.org/2000/svg">
<g clip-path="url(#clip0_755_10430)">
<path d="M16.6719 10.4697H28.3906C29.0352 10.4697 29.5625 10.9971 29.5625 11.6416V13.0479C29.5625 13.6924 29.0352 14.2198 28.3906 14.2198H16.6719C16.0273 14.2197 15.5 13.6924 15.5 13.0478V11.6416C15.5 10.9971 16.0273 10.4697 16.6719 10.4697Z" fill="#A86A3F"/>
<path d="M19.2383 11.7232L26.5742 9.77794C26.8203 9.70763 27.0781 9.85997 27.1484 10.1061L28.3672 14.6061C28.4375 14.8522 28.2851 15.11 28.039 15.1803L18.4883 17.7232C18.2422 17.7935 17.9844 17.6412 17.9141 17.3951L17.0234 14.0904L19.2383 11.7232Z" fill="#5EBA6D"/>
<path d="M27.091 14.4653L25.509 14.8872C25.3801 14.9223 25.2512 14.852 25.2278 14.7231C25.1926 14.5942 25.2629 14.4653 25.3918 14.4419L26.7512 14.0786L26.0247 11.3598L24.6653 11.7231C24.5364 11.7583 24.4075 11.6879 24.3841 11.559C24.3489 11.4302 24.4192 11.3012 24.5481 11.2778L26.1301 10.8559C26.259 10.8208 26.388 10.8911 26.4114 11.02L27.2551 14.1841C27.2902 14.313 27.2199 14.4419 27.091 14.4653ZM20.5285 16.2348L18.9465 16.6567C18.8176 16.6919 18.6887 16.6215 18.6653 16.4926L17.8215 13.3286C17.7864 13.1997 17.8567 13.0708 17.9856 13.0473L19.5676 12.6255C19.6965 12.5903 19.8254 12.6607 19.8489 12.7896C19.884 12.9185 19.8137 13.0474 19.6848 13.0708L18.3254 13.4341L19.052 16.1528L20.4113 15.7895C20.5402 15.7544 20.6692 15.8247 20.6926 15.9536C20.7277 16.0708 20.6574 16.1997 20.5285 16.2348Z" fill="#B3F0BD"/>
<path d="M15.5938 13.3641C17.6797 12.1687 23.3047 8.87576 23.3047 8.87576C23.5274 8.74686 23.8203 8.81717 23.9493 9.03983L26.293 13.0711C26.4219 13.2937 26.3399 13.575 26.1172 13.7039L17.5391 18.6258C17.3164 18.7547 17.0235 18.6844 16.8945 18.4617C16.8945 18.4617 16.2383 17.1258 15.582 16.0007C15.5821 13.3641 15.5938 14.2312 15.5938 13.3641Z" fill="#5EBA6D"/>
<path d="M25.0966 12.9418L23.456 10.1059C23.3857 9.98872 23.2451 9.95355 23.1396 10.0239L21.7216 10.8442C21.6045 10.9145 21.5693 11.0551 21.6396 11.1606C21.7099 11.2778 21.8505 11.3129 21.956 11.2426L23.1748 10.5395L24.581 12.977L23.3623 13.6801C23.2451 13.7504 23.2099 13.891 23.2802 13.9965C23.3505 14.1137 23.4912 14.1489 23.5966 14.0786L25.0146 13.2583C25.1201 13.1997 25.1669 13.059 25.0966 12.9418ZM18.8857 16.2583L17.6669 16.9614L16.2607 14.5239L17.4794 13.8207C17.5966 13.7504 17.6318 13.6098 17.5615 13.5043C17.4911 13.3871 17.3505 13.352 17.245 13.4223L15.8271 14.2426C15.7099 14.3129 15.6747 14.4535 15.7451 14.559L17.3857 17.3949C17.456 17.5121 17.5966 17.5473 17.7021 17.477L19.12 16.6567C19.2372 16.5864 19.2724 16.4457 19.2021 16.3403C19.1435 16.2348 19.0029 16.1879 18.8857 16.2583ZM19.4833 12.1215C18.581 12.6372 18.2763 13.7856 18.7919 14.6879C19.3193 15.5903 20.456 15.895 21.3583 15.3793C22.2607 14.8637 22.5654 13.7153 22.0497 12.8129C21.5224 11.9223 20.3857 11.6059 19.4833 12.1215ZM25.0966 12.9418L23.456 10.1059C23.3857 9.98872 23.2451 9.95355 23.1396 10.0239L21.7216 10.8442C21.6045 10.9145 21.5693 11.0551 21.6396 11.1606C21.7099 11.2778 21.8505 11.3129 21.956 11.2426L23.1748 10.5395L24.581 12.977L23.3623 13.6801C23.2451 13.7504 23.2099 13.891 23.2802 13.9965C23.3505 14.1137 23.4912 14.1489 23.5966 14.0786L25.0146 13.2583C25.1201 13.1997 25.1669 13.059 25.0966 12.9418ZM18.8857 16.2583L17.6669 16.9614L16.2607 14.5239L17.4794 13.8207C17.5966 13.7504 17.6318 13.6098 17.5615 13.5043C17.4911 13.3871 17.3505 13.352 17.245 13.4223L15.8271 14.2426C15.7099 14.3129 15.6747 14.4535 15.7451 14.559L17.3857 17.3949C17.456 17.5121 17.5966 17.5473 17.7021 17.477L19.12 16.6567C19.2372 16.5864 19.2724 16.4457 19.2021 16.3403C19.1435 16.2348 19.0029 16.1879 18.8857 16.2583ZM19.4833 12.1215C18.581 12.6372 18.2763 13.7856 18.7919 14.6879C19.3193 15.5903 20.456 15.895 21.3583 15.3793C22.2607 14.8637 22.5654 13.7153 22.0497 12.8129C21.5224 11.9223 20.3857 11.6059 19.4833 12.1215Z" fill="#B3F0BD"/>
<path d="M28.8594 22.1885H16.6719C16.0273 22.1885 15.5 21.6611 15.5 21.0166V12.5791H28.8594C29.5039 12.5791 30.0313 13.1065 30.0313 13.751V21.0166C30.0312 21.6611 29.5039 22.1885 28.8594 22.1885ZM16.4375 12.5791H15.5V11.6416C15.5 12.1572 15.9219 12.5791 16.4375 12.5791Z" fill="#C47E4D"/>
<path d="M30.0312 19.2588H28.1562C27.2539 19.2588 26.5156 18.5205 26.5156 17.6182C26.5156 16.7158 27.2539 15.9775 28.1562 15.9775H30.0312C30.2891 15.9775 30.5 16.1885 30.5 16.4463V18.79C30.5 19.0478 30.2891 19.2588 30.0312 19.2588Z" fill="#A86A3F"/>
<path d="M28.1563 16.6807C28.6719 16.6807 29.0938 17.1025 29.0938 17.6182C29.0938 18.1338 28.6719 18.5557 28.1563 18.5557C27.6406 18.5557 27.2188 18.1338 27.2188 17.6182C27.2188 17.1025 27.6406 16.6807 28.1563 16.6807Z" fill="#EFC75E"/>
<path d="M28.3906 18.3213C27.875 18.3213 27.4531 17.8994 27.4531 17.3838C27.4531 17.1846 27.5117 16.9971 27.6172 16.8447C27.3711 17.0088 27.2188 17.29 27.2188 17.6182C27.2188 18.1338 27.6406 18.5557 28.1563 18.5557C28.4727 18.5557 28.7539 18.3916 28.9297 18.1572C28.7773 18.2627 28.5898 18.3213 28.3906 18.3213Z" fill="#D7B354"/>
<path d="M28.8594 21.7197H16.6719C16.0273 21.7197 15.5 21.1924 15.5 20.5479V21.0166C15.5 21.6611 16.0273 22.1885 16.6719 22.1885H28.8594C29.5039 22.1885 30.0313 21.6611 30.0313 21.0166V20.5479C30.0312 21.1924 29.5039 21.7197 28.8594 21.7197Z" fill="#B27245"/>
<path d="M28.8594 12.5791H16.4375C15.9219 12.5791 15.5 12.1572 15.5 11.6416V12.1104C15.5 12.626 15.9219 13.0479 16.4375 13.0479H28.8594C29.5039 13.0479 30.0313 13.5752 30.0313 14.2198V13.751C30.0312 13.1065 29.5039 12.5791 28.8594 12.5791Z" fill="#CA8B5F"/>
</g>
<rect x="1" y="0.5" width="44" height="29" rx="4.5" stroke="#E2E4EB"/>
<defs>
<clipPath id="clip0_755_10430">
<rect width="15" height="15" fill="white" transform="translate(15.5 8)"/>
</clipPath>
</defs>
</svg>
