<svg width="46" height="30" viewBox="0 0 46 30" fill="none" xmlns="http://www.w3.org/2000/svg">
<path fill-rule="evenodd" clip-rule="evenodd" d="M36.0975 10H29.7695C30.1097 12.1093 32.151 14.0825 34.3964 14.0825H39.4315C39.4996 13.8784 39.4996 13.6062 39.4996 13.4021C39.4996 11.4969 38.0027 10 36.0975 10Z" fill="url(#paint0_linear_755_10468)"/>
<path fill-rule="evenodd" clip-rule="evenodd" d="M30.3145 14.4227V19.5259H33.3764V16.8042H36.0981C37.595 16.8042 38.8878 15.7836 39.296 14.4227H30.3145Z" fill="#4DB45F"/>
<path fill-rule="evenodd" clip-rule="evenodd" d="M19.4277 10V19.5259H22.1494C22.1494 19.5259 22.8299 19.5259 23.1701 18.8455C25.0072 15.1712 25.5515 14.0825 25.5515 14.0825H25.8918V19.5259H28.9537V10H26.232C26.232 10 25.5515 10.068 25.2113 10.6804C23.6464 13.8104 22.8299 15.4434 22.8299 15.4434H22.4896V10H19.4277Z" fill="#4DB45F"/>
<path fill-rule="evenodd" clip-rule="evenodd" d="M6.5 19.5259V10H9.5619C9.5619 10 10.4465 10 10.9228 11.3608C12.1475 14.9671 12.2836 15.4434 12.2836 15.4434C12.2836 15.4434 12.5558 14.5588 13.6444 11.3608C14.1207 10 15.0053 10 15.0053 10H18.0672V19.5259H15.0053V14.4228H14.6651L12.964 19.5259H11.6032L9.90212 14.4228H9.5619V19.5259H6.5Z" fill="#4DB45F"/>
<rect x="1" y="0.5" width="44" height="29" rx="4.5" stroke="#E2E4EB"/>
<defs>
<linearGradient id="paint0_linear_755_10468" x1="29.752" y1="12.0413" x2="39.4996" y2="12.0413" gradientUnits="userSpaceOnUse">
<stop stop-color="#00B4E6"/>
<stop offset="1" stop-color="#088CCB"/>
</linearGradient>
</defs>
</svg>
