<svg width="20" height="20" viewBox="0 0 20 20" fill="none" xmlns="http://www.w3.org/2000/svg">
<path d="M2.14991 17.0586C1.40314 14.183 1.10756 10.6607 1.0256 8.74863C1.00195 8.19685 1.44772 7.75 2 7.75H18C18.5523 7.75 18.998 8.19685 18.9744 8.74863C18.8924 10.6607 18.5969 14.183 17.8501 17.0586C17.6501 17.8287 17.0868 18.4292 16.3043 18.5736C15.133 18.7896 13.1135 19 10 19C6.88651 19 4.86695 18.7896 3.69568 18.5736C2.91323 18.4292 2.3499 17.8287 2.14991 17.0586Z" fill="#F2F3F5"/>
<path d="M1.0256 8.74863L0.526061 8.77004L1.0256 8.74863ZM2.14991 17.0586L2.63386 16.9329L2.63386 16.9329L2.14991 17.0586ZM3.69568 18.5736L3.78638 18.0819L3.78638 18.0819L3.69568 18.5736ZM18.9744 8.74863L19.4739 8.77004L19.4739 8.77004L18.9744 8.74863ZM17.8501 17.0586L18.334 17.1843L18.334 17.1843L17.8501 17.0586ZM16.3043 18.5736L16.2136 18.0819L16.2136 18.0819L16.3043 18.5736ZM0.526061 8.77004C0.608578 10.6952 0.906112 14.2583 1.66596 17.1843L2.63386 16.9329C1.90016 14.1077 1.60654 10.6262 1.52514 8.72721L0.526061 8.77004ZM3.60498 19.0653C4.81515 19.2885 6.86684 19.5 10 19.5V18.5C6.90619 18.5 4.91875 18.2907 3.78638 18.0819L3.60498 19.0653ZM18.4748 8.72721C18.3935 10.6262 18.0998 14.1077 17.3661 16.9329L18.334 17.1843C19.0939 14.2583 19.3914 10.6952 19.4739 8.77004L18.4748 8.72721ZM16.2136 18.0819C15.0812 18.2907 13.0938 18.5 10 18.5V19.5C13.1332 19.5 15.1848 19.2885 16.395 19.0653L16.2136 18.0819ZM2 8.25H18V7.25H2V8.25ZM17.3661 16.9329C17.2073 17.5444 16.7768 17.978 16.2136 18.0819L16.395 19.0653C17.3967 18.8805 18.0928 18.113 18.334 17.1843L17.3661 16.9329ZM19.4739 8.77004C19.5103 7.92193 18.8246 7.25 18 7.25V8.25C18.2799 8.25 18.4858 8.47176 18.4748 8.72721L19.4739 8.77004ZM1.66596 17.1843C1.90715 18.113 2.60329 18.8805 3.60498 19.0653L3.78638 18.0819C3.22318 17.978 2.79265 17.5444 2.63386 16.9329L1.66596 17.1843ZM1.52514 8.72721C1.5142 8.47176 1.72006 8.25 2 8.25V7.25C1.17537 7.25 0.48971 7.92193 0.526061 8.77004L1.52514 8.72721Z" fill="#353949"/>
<path d="M4.25 7.75C4.25 8.02614 4.47386 8.25 4.75 8.25C5.02614 8.25 5.25 8.02614 5.25 7.75H4.25ZM14.75 7.75C14.75 8.02614 14.9739 8.25 15.25 8.25C15.5261 8.25 15.75 8.02614 15.75 7.75H14.75ZM5.25 7.75V6H4.25V7.75H5.25ZM9.75 1.5H10.25V0.5H9.75V1.5ZM14.75 6V7.75H15.75V6H14.75ZM10.25 1.5C12.7353 1.5 14.75 3.51472 14.75 6H15.75C15.75 2.96243 13.2876 0.5 10.25 0.5V1.5ZM5.25 6C5.25 3.51472 7.26472 1.5 9.75 1.5V0.5C6.71243 0.5 4.25 2.96243 4.25 6H5.25Z" fill="#353949"/>
<path d="M7 12.25V14.5M13 12.25V14.5" stroke="#353949" stroke-linecap="round" stroke-linejoin="round"/>
</svg>
