<svg width="18" height="18" viewBox="0 0 18 18" fill="none" xmlns="http://www.w3.org/2000/svg">
<path d="M16.6542 13.879L15.9089 13.7958L16.6542 13.879ZM4.09625 1.36273L4.18236 2.10777L4.09625 1.36273ZM4.09625 16.6361L4.01014 17.3812L4.09625 16.6361ZM8.99958 16.249C7.3711 16.249 5.77134 16.0747 4.18236 15.8911L4.01014 17.3812C5.59525 17.5644 7.27415 17.749 8.99958 17.749V16.249ZM13.8168 15.8911C12.2278 16.0747 10.6281 16.249 8.99958 16.249V17.749C10.725 17.749 12.4039 17.5644 13.989 17.3812L13.8168 15.8911ZM17.3996 13.9622C17.5758 12.383 17.7492 10.7143 17.7492 8.99943H16.2492C16.2492 10.622 16.0851 12.2161 15.9089 13.7958L17.3996 13.9622ZM17.7492 8.99943C17.7492 7.28452 17.5758 5.6159 17.3996 4.03669L15.9089 4.20301C16.0851 5.78272 16.2492 7.37683 16.2492 8.99943H17.7492ZM8.99958 1.74985C10.6281 1.74985 12.2278 1.92413 13.8168 2.10777L13.989 0.617694C12.4039 0.434493 10.725 0.249847 8.99958 0.249847V1.74985ZM4.18236 2.10777C5.77134 1.92413 7.3711 1.74985 8.99958 1.74985V0.249847C7.27415 0.249847 5.59525 0.434493 4.01014 0.617694L4.18236 2.10777ZM0.599548 4.03669C0.42336 5.6159 0.25 7.28452 0.25 8.99943H1.75C1.75 7.37683 1.91405 5.78272 2.0903 4.20301L0.599548 4.03669ZM0.25 8.99943C0.25 10.7143 0.42336 12.383 0.599548 13.9622L2.0903 13.7958C1.91405 12.2161 1.75 10.622 1.75 8.99943H0.25ZM17.3996 4.03669C17.2 2.24783 15.7738 0.823967 13.989 0.617694L13.8168 2.10777C14.9106 2.2342 15.7871 3.112 15.9089 4.20301L17.3996 4.03669ZM13.989 17.3812C15.7738 17.1749 17.2 15.751 17.3996 13.9622L15.9089 13.7958C15.7871 14.8869 14.9106 15.7647 13.8168 15.8911L13.989 17.3812ZM4.01014 0.617694C2.22541 0.823967 0.799126 2.24783 0.599548 4.03669L2.0903 4.20301C2.21202 3.112 3.08851 2.2342 4.18236 2.10777L4.01014 0.617694ZM4.18236 15.8911C3.08851 15.7647 2.21202 14.8869 2.0903 13.7958L0.599548 13.9622C0.799126 15.751 2.22541 17.1749 4.01014 17.3812L4.18236 15.8911Z" fill="white"/>
<path d="M9.75 5.79913C9.75 5.38492 9.41421 5.04913 9 5.04913C8.58579 5.04913 8.25 5.38492 8.25 5.79913L9.75 5.79913ZM8.25 12.1996C8.25 12.6138 8.58579 12.9496 9 12.9496C9.41421 12.9496 9.75 12.6138 9.75 12.1996L8.25 12.1996ZM8.25 5.79913L8.25 12.1996L9.75 12.1996L9.75 5.79913L8.25 5.79913Z" fill="white"/>
<path d="M12.2031 9.74854C12.6173 9.74854 12.9531 9.41275 12.9531 8.99854C12.9531 8.58432 12.6173 8.24854 12.2031 8.24854L12.2031 9.74854ZM5.80268 8.24853C5.38847 8.24853 5.05268 8.58432 5.05268 8.99853C5.05268 9.41275 5.38847 9.74853 5.80268 9.74853L5.80268 8.24853ZM12.2031 8.24854L5.80268 8.24853L5.80268 9.74853L12.2031 9.74854L12.2031 8.24854Z" fill="white"/>
</svg>
