<svg width="16" height="16" viewBox="0 0 16 16" fill="none" xmlns="http://www.w3.org/2000/svg">
<path d="M3.96086 10.6262C3.57034 11.0167 3.57034 11.6499 3.96086 12.0404C4.35139 12.431 4.98455 12.431 5.37508 12.0404L3.96086 10.6262ZM8.70841 8.7071C9.09893 8.31658 9.09893 7.68342 8.70841 7.29289C8.31788 6.90237 7.68472 6.90237 7.2942 7.29289L8.70841 8.7071ZM7.2942 7.29289C6.90367 7.68342 6.90367 8.31658 7.2942 8.7071C7.68472 9.09763 8.31788 9.09763 8.70841 8.7071L7.2942 7.29289ZM12.0417 5.37377C12.4323 4.98325 12.4323 4.35008 12.0417 3.95956C11.6512 3.56903 11.0181 3.56903 10.6275 3.95956L12.0417 5.37377ZM8.70841 7.29289C8.31788 6.90237 7.68472 6.90237 7.2942 7.29289C6.90367 7.68342 6.90367 8.31658 7.2942 8.7071L8.70841 7.29289ZM10.6275 12.0404C11.0181 12.431 11.6512 12.431 12.0417 12.0404C12.4323 11.6499 12.4323 11.0167 12.0417 10.6262L10.6275 12.0404ZM7.2942 8.7071C7.68472 9.09763 8.31788 9.09763 8.70841 8.7071C9.09893 8.31658 9.09893 7.68342 8.70841 7.29289L7.2942 8.7071ZM5.37508 3.95956C4.98455 3.56903 4.35139 3.56903 3.96086 3.95956C3.57034 4.35008 3.57034 4.98325 3.96086 5.37377L5.37508 3.95956ZM5.37508 12.0404L8.70841 8.7071L7.2942 7.29289L3.96086 10.6262L5.37508 12.0404ZM8.70841 8.7071L12.0417 5.37377L10.6275 3.95956L7.2942 7.29289L8.70841 8.7071ZM7.2942 8.7071L10.6275 12.0404L12.0417 10.6262L8.70841 7.29289L7.2942 8.7071ZM8.70841 7.29289L5.37508 3.95956L3.96086 5.37377L7.2942 8.7071L8.70841 7.29289Z" fill="#E2E4EB"/>
</svg>
