<svg width="20" height="20" viewBox="0 0 20 20" fill="none" xmlns="http://www.w3.org/2000/svg">
<path d="M10.0006 19C15.7609 19 19.0011 15.7598 19.0011 9.99946C19.0011 4.2391 15.7609 0.998901 10.0006 0.998901C4.2402 0.998901 1 4.2391 1 9.99946C1 15.7598 4.2402 19 10.0006 19Z" fill="#F2F3F5"/>
<path d="M18.5011 9.99946C18.5011 12.7876 17.7185 14.8952 16.3074 16.3063C14.8963 17.7174 12.7887 18.5 10.0006 18.5V19.5C12.9728 19.5 15.3654 18.6625 17.0145 17.0134C18.6636 15.3643 19.5011 12.9717 19.5011 9.99946H18.5011ZM10.0006 18.5C7.21241 18.5 5.10478 17.7174 3.6937 16.3063C2.28262 14.8952 1.5 12.7876 1.5 9.99946H0.5C0.5 12.9717 1.33748 15.3643 2.98659 17.0134C4.6357 18.6625 7.02834 19.5 10.0006 19.5V18.5ZM1.5 9.99946C1.5 7.21132 2.28262 5.10368 3.6937 3.6926C5.10478 2.28152 7.21241 1.4989 10.0006 1.4989V0.498901C7.02834 0.498901 4.6357 1.33638 2.98659 2.98549C1.33748 4.6346 0.5 7.02725 0.5 9.99946H1.5ZM10.0006 1.4989C12.7887 1.4989 14.8963 2.28152 16.3074 3.6926C17.7185 5.10368 18.5011 7.21132 18.5011 9.99946H19.5011C19.5011 7.02725 18.6636 4.6346 17.0145 2.98549C15.3654 1.33638 12.9728 0.498901 10.0006 0.498901V1.4989Z" fill="#505567"/>
<path d="M6.39844 13.6006L13.5989 6.40015" stroke="#505567" stroke-linecap="round" stroke-linejoin="round"/>
<path d="M7.11848 7.84024C7.51615 7.84024 7.83853 7.51786 7.83853 7.12019C7.83853 6.72252 7.51615 6.40015 7.11848 6.40015C6.72081 6.40015 6.39844 6.72252 6.39844 7.12019C6.39844 7.51786 6.72081 7.84024 7.11848 7.84024Z" fill="#505567" stroke="#505567" stroke-linecap="round" stroke-linejoin="round"/>
<path d="M12.8802 13.6009C13.2779 13.6009 13.6002 13.2785 13.6002 12.8808C13.6002 12.4831 13.2779 12.1608 12.8802 12.1608C12.4825 12.1608 12.1602 12.4831 12.1602 12.8808C12.1602 13.2785 12.4825 13.6009 12.8802 13.6009Z" fill="#505567" stroke="#505567" stroke-linecap="round" stroke-linejoin="round"/>
</svg>
