<svg width="14" height="12" viewBox="0 0 14 12" fill="none" xmlns="http://www.w3.org/2000/svg">
	<path
		d="M13 6.01027C13 7.07142 10.3137 10.8103 7 10.8103C3.68629 10.8103 1 7.07142 1 6.01027C1 4.94911 3.68629 1.21027 7 1.21027C10.3137 1.21027 13 4.94911 13 6.01027Z"
		fill="white" />
	<path
		d="M12.5 6.01027C12.5 6.05211 12.4831 6.159 12.4126 6.33862C12.3456 6.50962 12.2419 6.71672 12.1012 6.94832C11.8199 7.41133 11.4067 7.94583 10.8921 8.45163C9.85214 9.47397 8.47132 10.3103 7 10.3103V11.3103C8.84238 11.3103 10.4616 10.2771 11.5932 9.16477C12.1644 8.60321 12.6299 8.00403 12.9558 7.46756C13.1187 7.19941 13.2508 6.94033 13.3436 6.70374C13.433 6.47579 13.5 6.23371 13.5 6.01027H12.5ZM7 10.3103C5.52868 10.3103 4.14786 9.47397 3.10787 8.45163C2.59334 7.94583 2.18013 7.41133 1.89883 6.94832C1.75812 6.71672 1.65444 6.50962 1.58738 6.33862C1.51693 6.159 1.5 6.05211 1.5 6.01027H0.5C0.5 6.23371 0.567016 6.47579 0.656418 6.70374C0.749205 6.94033 0.881285 7.19941 1.04419 7.46756C1.37013 8.00403 1.83559 8.60321 2.40685 9.16477C3.53843 10.2771 5.15762 11.3103 7 11.3103V10.3103ZM1.5 6.01027C1.5 5.96842 1.51693 5.86154 1.58738 5.68191C1.65444 5.51091 1.75812 5.30381 1.89883 5.07221C2.18013 4.6092 2.59334 4.0747 3.10787 3.5689C4.14786 2.54656 5.52868 1.71027 7 1.71027V0.710266C5.15762 0.710266 3.53843 1.74339 2.40685 2.85577C1.83559 3.41732 1.37013 4.0165 1.04419 4.55298C0.881285 4.82112 0.749205 5.08021 0.656418 5.31679C0.567016 5.54474 0.5 5.78682 0.5 6.01027H1.5ZM7 1.71027C8.47132 1.71027 9.85214 2.54656 10.8921 3.5689C11.4067 4.0747 11.8199 4.6092 12.1012 5.07221C12.2419 5.30381 12.3456 5.51091 12.4126 5.68191C12.4831 5.86154 12.5 5.96842 12.5 6.01027H13.5C13.5 5.78682 13.433 5.54474 13.3436 5.31679C13.2508 5.08021 13.1187 4.82112 12.9558 4.55298C12.6299 4.0165 12.1644 3.41732 11.5932 2.85577C10.4616 1.74339 8.84238 0.710266 7 0.710266V1.71027Z"
		fill="#505567" />
	<path
		d="M6.99922 7.81027C7.99333 7.81027 8.79922 7.00438 8.79922 6.01027C8.79922 5.01615 7.99333 4.21027 6.99922 4.21027C6.00511 4.21027 5.19922 5.01615 5.19922 6.01027C5.19922 7.00438 6.00511 7.81027 6.99922 7.81027Z"
		fill="white" stroke="#505567" stroke-linecap="round" stroke-linejoin="round" />
</svg>