<svg width="24" height="24" viewBox="0 0 24 24" fill="none" xmlns="http://www.w3.org/2000/svg">
<path d="M1.99609 14.001L4.5477 9.74837C4.84136 9.25892 5.26851 8.86337 5.77904 8.6081L6.36447 8.31539C6.78121 8.10702 7.24074 7.99854 7.70667 7.99854H22.0044" stroke="#7D818E" stroke-width="1.5" stroke-linecap="round" stroke-linejoin="round"/>
<path d="M3.99609 21.0038L9.76036 18.9209C10.5649 18.6302 11.2551 18.0893 11.7297 17.3776L14.7238 12.8878C15.1593 12.2348 15.0733 11.3651 14.5183 10.8101V10.8101C13.8754 10.1672 12.8331 10.1671 12.1901 10.8099L9.99859 13.0004H7.99776" stroke="#7D818E" stroke-width="1.5" stroke-linecap="round" stroke-linejoin="round"/>
<path d="M13.9833 14.0011H19.6886C20.9912 13.9774 22.0282 12.9027 22.0054 11.6001V7.39831C22.0282 6.0957 20.9912 5.02098 19.6886 4.99731H12.3171C11.0145 5.02098 9.97751 6.0957 10.0004 7.39831V7.39831V13.0006" stroke="#7D818E" stroke-width="1.5" stroke-linecap="round" stroke-linejoin="round"/>
</svg>
