<svg width="22" height="20" viewBox="0 0 22 20" fill="none" xmlns="http://www.w3.org/2000/svg">
<path d="M11.125 3.91042C6.23305 -2.00076 1.06796 2.19939 1 6.72705C1 13.4675 9.18921 19 11.125 19C13.0608 19 21.25 13.4675 21.25 6.72705C21.182 2.19939 16.0169 -2.00076 11.125 3.91042Z" fill="#F2F3F5"/>
<path d="M1 6.72705L0.5 6.71954V6.72705H1ZM11.125 3.91042L10.7398 4.2292C10.8348 4.34398 10.976 4.41042 11.125 4.41042C11.274 4.41042 11.4152 4.34398 11.5102 4.2292L11.125 3.91042ZM21.25 6.72705L21.7501 6.72705L21.7499 6.71954L21.25 6.72705ZM1.49994 6.73455C1.53142 4.63787 2.74801 2.64519 4.46205 1.8586C5.30832 1.47024 6.28737 1.36835 7.33954 1.69726C8.39786 2.0281 9.56146 2.80537 10.7398 4.2292L11.5102 3.59164C10.2425 2.05988 8.92603 1.14548 7.63791 0.742811C6.34365 0.338222 5.10994 0.461003 4.04496 0.949736C1.93648 1.91734 0.536545 4.28857 0.500056 6.71954L1.49994 6.73455ZM11.125 18.5C10.98 18.5 10.7119 18.4424 10.3206 18.2852C9.94172 18.1329 9.48699 17.9036 8.98355 17.6015C7.97706 16.9976 6.80249 16.119 5.68512 15.0327C3.43564 12.8457 1.5 9.8993 1.5 6.72705H0.5C0.5 10.2952 2.65897 13.4853 4.98804 15.7497C6.15994 16.889 7.39563 17.8149 8.46905 18.459C9.00557 18.7809 9.50821 19.0364 9.9477 19.213C10.3748 19.3847 10.786 19.5 11.125 19.5V18.5ZM21.7499 6.71954C21.7135 4.28857 20.3135 1.91734 18.205 0.949736C17.14 0.461003 15.9063 0.338222 14.6121 0.742811C13.3239 1.14548 12.0074 2.05988 10.7398 3.59164L11.5102 4.2292C12.6885 2.80537 13.8521 2.0281 14.9104 1.69726C15.9626 1.36835 16.9417 1.47024 17.7879 1.8586C19.502 2.64519 20.7186 4.63787 20.7501 6.73455L21.7499 6.71954ZM11.125 19.5C11.4639 19.5 11.8752 19.3847 12.3023 19.213C12.7418 19.0364 13.2444 18.7809 13.7809 18.459C14.8543 17.8149 16.09 16.889 17.2619 15.7497C19.591 13.4853 21.75 10.2952 21.75 6.72705H20.75C20.75 9.8993 18.8144 12.8457 16.5649 15.0327C15.4475 16.119 14.2729 16.9976 13.2664 17.6015C12.763 17.9036 12.3083 18.1329 11.9294 18.2852C11.5381 18.4424 11.27 18.5 11.125 18.5V19.5Z" fill="#353949"/>
</svg>
