<svg width="24" height="24" viewBox="0 0 24 24" fill="none" xmlns="http://www.w3.org/2000/svg">
<g clip-path="url(#clip0_2026_60964)">
<path d="M10.9645 3.14177C10.0018 3.04863 9.01021 3 7.99745 3C6.98467 3 5.9931 3.04863 5.0304 3.14177C3.97107 3.24426 3.16067 4.31798 3.11282 5.62536C3.03892 7.64456 3 9.74066 3 11.8905C3 14.0402 3.03892 16.1364 3.11282 18.1555C3.16067 19.4629 3.97107 20.5366 5.0304 20.6391C5.9931 20.7323 6.98467 20.7809 7.99745 20.7809C9.01021 20.7809 10.0018 20.7323 10.9645 20.6391C12.0238 20.5367 12.8342 19.4629 12.8821 18.1556C12.9084 17.4351 12.9303 16.7049 12.9476 15.9659V7.81501C12.9303 7.07604 12.9084 6.34581 12.8821 5.62536C12.8342 4.31798 12.0238 3.24426 10.9645 3.14177Z" fill="#F2F3F5"/>
<path d="M14.789 12.0179C14.789 12.8635 14.931 14.1225 15.0502 15.0298C15.1288 15.6283 15.726 16.0096 16.2881 15.7895C17.9627 15.1337 19.5273 14.0913 20.5505 12.48C20.7297 12.1979 20.7297 11.838 20.5505 11.5558C19.5274 9.94456 17.9628 8.90218 16.2882 8.24643C15.7261 8.02631 15.1289 8.40755 15.0503 9.00608C14.9311 9.91332 14.789 11.1724 14.789 12.0179Z" fill="#F2F3F5"/>
<path d="M15.0502 15.0298L15.7938 14.9321L15.7938 14.9321L15.0502 15.0298ZM15.0503 9.00608L14.3067 8.90839L14.3067 8.90839L15.0503 9.00608ZM16.2881 15.7895L16.5616 16.4878L16.5616 16.4878L16.2881 15.7895ZM20.5505 12.48L19.9174 12.078L20.5505 12.48ZM16.2882 8.24643L16.0147 8.94479L16.0147 8.94479L16.2882 8.24643ZM20.5505 11.5558L21.1837 11.1538L21.1837 11.1538L20.5505 11.5558ZM14.3065 15.1274C14.1878 14.2228 14.039 12.9187 14.039 12.0179L15.539 12.0179C15.539 12.8083 15.6743 14.0223 15.7938 14.9321L14.3065 15.1274ZM15.7939 9.10376C15.6744 10.0136 15.539 11.2276 15.539 12.0179L14.039 12.0179C14.039 11.1171 14.1878 9.81302 14.3067 8.90839L15.7939 9.10376ZM16.0146 15.0911C17.591 14.4738 19.0045 13.5155 19.9174 12.078L21.1836 12.8821C20.0501 14.667 18.3345 15.7936 16.5616 16.4878L16.0146 15.0911ZM16.5617 7.54806C18.3345 8.24228 20.0503 9.36883 21.1837 11.1538L19.9174 11.9579C19.0046 10.5203 17.5911 9.56208 16.0147 8.94479L16.5617 7.54806ZM14.3067 8.90839C14.4439 7.86372 15.5119 7.13697 16.5617 7.54806L16.0147 8.94479C15.9663 8.92581 15.9238 8.93142 15.8839 8.9562C15.8411 8.98285 15.8033 9.03217 15.7939 9.10376L14.3067 8.90839ZM19.9174 12.078C19.9407 12.0412 19.9407 11.9946 19.9174 11.9579L21.1837 11.1538C21.5187 11.6814 21.5186 12.3546 21.1836 12.8821L19.9174 12.078ZM15.7938 14.9321C15.8032 15.0037 15.841 15.053 15.8838 15.0797C15.9237 15.1045 15.9662 15.1101 16.0146 15.0911L16.5616 16.4878C15.5117 16.8989 14.4437 16.1721 14.3065 15.1274L15.7938 14.9321Z" fill="#505567"/>
<path d="M5.0304 3.14177L5.10263 3.88829L5.0304 3.14177ZM3.11282 5.62536L2.36332 5.59793L3.11282 5.62536ZM12.1326 5.65279C12.1477 6.06673 12.4955 6.39001 12.9095 6.37486C13.3234 6.35971 13.6467 6.01187 13.6316 5.59793L12.1326 5.65279ZM10.9645 3.14177L11.0367 2.39526L10.9645 3.14177ZM3.11282 18.1555L2.36332 18.183L3.11282 18.1555ZM5.0304 20.6391L4.95818 21.3857L5.0304 20.6391ZM13.6316 18.183C13.6467 17.769 13.3234 17.4212 12.9095 17.4061C12.4955 17.3909 12.1477 17.7142 12.1326 18.1281L13.6316 18.183ZM10.9645 20.6391L11.0367 21.3857L10.9645 20.6391ZM7.99745 3.75C8.98626 3.75 9.95372 3.79748 10.8922 3.88828L11.0367 2.39526C10.0498 2.29978 9.03416 2.25 7.99745 2.25V3.75ZM5.10263 3.88829C6.04115 3.79748 7.00863 3.75 7.99745 3.75V2.25C6.96072 2.25 5.94504 2.29978 4.95818 2.39526L5.10263 3.88829ZM3.75 11.8905C3.75 9.74966 3.78876 7.6627 3.86232 5.6528L2.36332 5.59793C2.28908 7.62641 2.25 9.73166 2.25 11.8905H3.75ZM3.86232 18.1281C3.78876 16.1182 3.75 14.0312 3.75 11.8905H2.25C2.25 14.0492 2.28908 16.1545 2.36332 18.183L3.86232 18.1281ZM7.99745 20.0309C7.00863 20.0309 6.04116 19.9834 5.10263 19.8926L4.95818 21.3857C5.94504 21.4811 6.96072 21.5309 7.99745 21.5309V20.0309ZM10.8922 19.8926C9.95372 19.9834 8.98626 20.0309 7.99745 20.0309V21.5309C9.03416 21.5309 10.0498 21.4811 11.0367 21.3857L10.8922 19.8926ZM4.95818 2.39526C3.39887 2.54612 2.41972 4.05704 2.36332 5.59793L3.86232 5.6528C3.90162 4.57892 4.54327 3.9424 5.10263 3.88829L4.95818 2.39526ZM13.6316 5.59793C13.5752 4.05704 12.596 2.54612 11.0367 2.39526L10.8922 3.88828C11.4516 3.9424 12.0933 4.57892 12.1326 5.65279L13.6316 5.59793ZM2.36332 18.183C2.41972 19.7239 3.39887 21.2348 4.95818 21.3857L5.10263 19.8926C4.54327 19.8385 3.90162 19.202 3.86232 18.1281L2.36332 18.183ZM12.1326 18.1281C12.0933 19.202 11.4516 19.8385 10.8922 19.8926L11.0367 21.3857C12.596 21.2348 13.5752 19.7239 13.6316 18.183L12.1326 18.1281Z" fill="#505567"/>
<path d="M7.48192 12.0187L14.7891 12.0187" stroke="#505567" stroke-width="1.5" stroke-linecap="round" stroke-linejoin="round"/>
</g>
<defs>
<clipPath id="clip0_2026_60964">
<rect width="24" height="24" fill="white"/>
</clipPath>
</defs>
</svg>
