<svg width="20" height="20" viewBox="0 0 20 20" fill="none" xmlns="http://www.w3.org/2000/svg">
<path d="M8.96447 1.14177C8.00178 1.04863 7.01021 1 5.99745 1C4.98467 1 3.9931 1.04863 3.0304 1.14177C1.97107 1.24426 1.16067 2.31798 1.11282 3.62536C1.03892 5.64456 1 7.74066 1 9.89045C1 12.0402 1.03892 14.1364 1.11282 16.1555C1.16067 17.4629 1.97107 18.5366 3.0304 18.6391C3.9931 18.7323 4.98467 18.7809 5.99745 18.7809C7.01021 18.7809 8.00178 18.7323 8.96447 18.6391C10.0238 18.5367 10.8342 17.4629 10.8821 16.1556C10.9084 15.4351 10.9303 14.7049 10.9476 13.9659V5.81501C10.9303 5.07604 10.9084 4.34581 10.8821 3.62536C10.8342 2.31798 10.0238 1.24426 8.96447 1.14177Z" fill="#F2F3F5"/>
<path d="M12.789 10.0179C12.789 10.8635 12.931 12.1225 13.0502 13.0298C13.1288 13.6283 13.726 14.0096 14.2881 13.7895C15.9627 13.1337 17.5273 12.0913 18.5505 10.48C18.7297 10.1979 18.7297 9.83802 18.5505 9.55583C17.5274 7.94456 15.9628 6.90218 14.2882 6.24643C13.7261 6.02631 13.1289 6.40755 13.0503 7.00608C12.9311 7.91332 12.789 9.17235 12.789 10.0179Z" fill="#F2F3F5"/>
<path d="M13.0502 13.0298L13.5459 12.9647L13.5459 12.9647L13.0502 13.0298ZM13.0503 7.00608L12.5545 6.94096L12.5545 6.94096L13.0503 7.00608ZM14.2881 13.7895L14.4704 14.255L14.4704 14.255L14.2881 13.7895ZM18.5505 10.48L18.1284 10.212L18.5505 10.48ZM14.2882 6.24643L14.1059 6.712L14.1059 6.712L14.2882 6.24643ZM18.5505 9.55583L18.9726 9.28782L18.9726 9.28782L18.5505 9.55583ZM12.5544 13.0949C12.4355 12.1894 12.289 10.9003 12.289 10.0179L13.289 10.0179C13.289 10.8267 13.4265 12.0557 13.5459 12.9647L12.5544 13.0949ZM13.546 7.0712C13.4266 7.98018 13.289 9.20915 13.289 10.0179L12.289 10.0179C12.289 9.13555 12.4356 7.84645 12.5545 6.94096L13.546 7.0712ZM14.1058 13.3239C15.7149 12.6938 17.1787 11.7075 18.1284 10.212L18.9726 10.7481C17.8759 12.4751 16.2105 13.5736 14.4704 14.255L14.1058 13.3239ZM14.4705 5.78085C16.2106 6.46225 17.876 7.56074 18.9726 9.28782L18.1284 9.82385C17.1789 8.32839 15.715 7.34212 14.1059 6.712L14.4705 5.78085ZM12.5545 6.94096C12.6722 6.045 13.5833 5.43341 14.4705 5.78085L14.1059 6.712C13.8689 6.61921 13.5856 6.7701 13.546 7.0712L12.5545 6.94096ZM18.1284 10.212C18.2037 10.0934 18.2037 9.94244 18.1284 9.82385L18.9726 9.28782C19.2557 9.7336 19.2556 10.3023 18.9726 10.7481L18.1284 10.212ZM13.5459 12.9647C13.5855 13.2658 13.8688 13.4167 14.1058 13.3239L14.4704 14.255C13.5831 14.6025 12.6721 13.9909 12.5544 13.0949L13.5459 12.9647Z" fill="#505567"/>
<path d="M3.0304 1.14177L3.07855 1.63945L3.0304 1.14177ZM1.11282 3.62536L0.613153 3.60708L1.11282 3.62536ZM10.3824 3.64365C10.3925 3.91961 10.6244 4.13513 10.9003 4.12503C11.1763 4.11493 11.3918 3.88303 11.3817 3.60708L10.3824 3.64365ZM8.96447 1.14177L9.01262 0.644093L8.96447 1.14177ZM1.11282 16.1555L0.613154 16.1738L1.11282 16.1555ZM3.0304 18.6391L2.98225 19.1368L3.0304 18.6391ZM11.3817 16.1738C11.3918 15.8979 11.1763 15.666 10.9003 15.6559C10.6244 15.6458 10.3925 15.8613 10.3824 16.1373L11.3817 16.1738ZM8.96447 18.6391L9.01262 19.1368L8.96447 18.6391ZM5.99745 1.5C6.99424 1.5 7.96974 1.54786 8.91632 1.63945L9.01262 0.644093C8.03382 0.549395 7.02618 0.5 5.99745 0.5V1.5ZM3.07855 1.63945C4.02514 1.54787 5.00064 1.5 5.99745 1.5V0.5C4.96871 0.5 3.96106 0.549395 2.98225 0.644095L3.07855 1.63945ZM1.5 9.89045C1.5 7.74666 1.53881 5.65665 1.61248 3.64365L0.613153 3.60708C0.539026 5.63246 0.5 7.73466 0.5 9.89045H1.5ZM1.61248 16.1373C1.53881 14.1243 1.5 12.0342 1.5 9.89045H0.5C0.5 12.0462 0.539026 14.1485 0.613154 16.1738L1.61248 16.1373ZM5.99745 18.2809C5.00064 18.2809 4.02514 18.233 3.07856 18.1415L2.98225 19.1368C3.96106 19.2315 4.96871 19.2809 5.99745 19.2809V18.2809ZM8.91632 18.1415C7.96974 18.233 6.99424 18.2809 5.99745 18.2809V19.2809C7.02618 19.2809 8.03382 19.2315 9.01262 19.1368L8.91632 18.1415ZM2.98225 0.644095C1.58961 0.778834 0.666701 2.14402 0.613153 3.60708L1.61248 3.64365C1.65464 2.49194 2.35254 1.70969 3.07855 1.63945L2.98225 0.644095ZM11.3817 3.60708C11.3282 2.14402 10.4053 0.778832 9.01262 0.644093L8.91632 1.63945C9.64233 1.70969 10.3402 2.49194 10.3824 3.64365L11.3817 3.60708ZM0.613154 16.1738C0.666701 17.6369 1.58961 19.0021 2.98225 19.1368L3.07856 18.1415C2.35254 18.0712 1.65464 17.289 1.61248 16.1373L0.613154 16.1738ZM10.3824 16.1373C10.3402 17.289 9.64233 18.0712 8.91632 18.1415L9.01262 19.1368C10.4053 19.0021 11.3282 17.6369 11.3817 16.1738L10.3824 16.1373Z" fill="#505567"/>
<path d="M5.48192 10.0187L12.7891 10.0187" stroke="#505567" stroke-linecap="round" stroke-linejoin="round"/>
</svg>
