<svg width="16" height="20" viewBox="0 0 16 20" fill="none" xmlns="http://www.w3.org/2000/svg">
<g style="mix-blend-mode:color">
<path d="M8.57939 18.654C10.2569 17.2446 15.0003 12.8227 15.0003 7.87975C15.0003 4.01368 11.8662 0.879608 8.00014 0.879608C4.13407 0.879608 1 4.01368 1 7.87975C1 12.8227 5.74337 17.2446 7.4209 18.654C7.76046 18.9392 8.23983 18.9392 8.57939 18.654Z" fill="#F2F3F5"/>
<path d="M8.57939 18.654L8.25777 18.2711L8.25777 18.2711L8.57939 18.654ZM7.4209 18.654L7.74252 18.2711L7.74252 18.2711L7.4209 18.654ZM14.5003 7.87975C14.5003 10.1968 13.3844 12.4333 12.016 14.2959C10.6531 16.151 9.0807 17.5798 8.25777 18.2711L8.90101 19.0368C9.75561 18.3188 11.3936 16.832 12.8219 14.888C14.2445 12.9516 15.5003 10.5056 15.5003 7.87975H14.5003ZM7.74252 18.2711C6.91959 17.5798 5.34717 16.151 3.98432 14.2959C2.61587 12.4333 1.5 10.1968 1.5 7.87975H0.5C0.5 10.5056 1.75581 12.9516 3.17843 14.888C4.60664 16.832 6.24468 18.3188 7.09928 19.0368L7.74252 18.2711ZM1.5 7.87975C1.5 4.28982 4.41021 1.37961 8.00014 1.37961V0.379608C3.85793 0.379608 0.5 3.73754 0.5 7.87975H1.5ZM8.00014 1.37961C11.5901 1.37961 14.5003 4.28982 14.5003 7.87975H15.5003C15.5003 3.73754 12.1424 0.379608 8.00014 0.379608V1.37961ZM8.25777 18.2711C8.10416 18.4002 7.89612 18.4002 7.74252 18.2711L7.09928 19.0368C7.6248 19.4783 8.37549 19.4783 8.90101 19.0368L8.25777 18.2711Z" fill="#7D818E"/>
<path d="M7.99995 10.3359C9.58342 10.3359 10.8671 9.0522 10.8671 7.46872C10.8671 5.88525 9.58342 4.60159 7.99995 4.60159C6.41647 4.60159 5.13281 5.88525 5.13281 7.46872C5.13281 9.0522 6.41647 10.3359 7.99995 10.3359Z" fill="#F2F3F5" stroke="#7D818E" stroke-linejoin="round"/>
</g>
</svg>
