<svg width="18" height="19" viewBox="0 0 18 19" fill="none" xmlns="http://www.w3.org/2000/svg">
<path d="M1.36507 14.997C1.53597 16.4353 2.69476 17.5767 4.1407 17.661C5.76228 17.7556 7.3987 17.8052 9.20778 17.8052C11.0168 17.8052 12.6533 17.7556 14.2749 17.661C15.7208 17.5767 16.8796 16.4353 17.0505 14.997C17.2372 13.4255 17.4156 11.8025 17.4156 10.1423C17.4156 8.48205 17.2372 6.85899 17.0505 5.28748C16.8796 3.8492 15.7208 2.70786 14.2749 2.62351C12.6533 2.52892 11.0168 2.47934 9.20778 2.47934C7.39871 2.47934 5.76228 2.52892 4.1407 2.62351C2.69476 2.70786 1.53597 3.8492 1.36507 5.28748C1.17834 6.85899 1 8.48205 1 10.1423C1 11.8025 1.17834 13.4255 1.36507 14.997Z" fill="white"/>
<path d="M16.8281 8.86978L1.58917 8.86978L1.80308 3.44605L9.11881 2.91545L16.8281 3.44606L16.8281 8.86978Z" fill="#F2F3F5"/>
<path d="M6.1875 1.00064L6.1875 4.41392" stroke="#505567" stroke-width="0.5" stroke-linecap="round"/>
<path d="M12.2187 1.00064L12.2187 4.41392" stroke="#505567" stroke-width="0.5" stroke-linecap="round"/>
<path d="M14.2749 2.62351L14.2603 2.87309L14.2749 2.62351ZM14.2749 17.661L14.2603 17.4114L14.2749 17.661ZM9.20778 17.5552C7.40348 17.5552 5.77191 17.5057 4.15526 17.4114L4.12614 17.9106C5.75265 18.0055 7.39393 18.0552 9.20778 18.0552V17.5552ZM14.2603 17.4114C12.6436 17.5057 11.0121 17.5552 9.20778 17.5552V18.0552C11.0216 18.0552 12.6629 18.0055 14.2894 17.9106L14.2603 17.4114ZM17.2987 15.0265C17.4855 13.4551 17.6656 11.8188 17.6656 10.1423H17.1656C17.1656 11.7861 16.989 13.396 16.8022 14.9675L17.2987 15.0265ZM17.6656 10.1423C17.6656 8.46569 17.4855 6.82945 17.2987 5.25798L16.8022 5.31698C16.989 6.88853 17.1656 8.49841 17.1656 10.1423H17.6656ZM9.20778 2.72934C11.0121 2.72934 12.6436 2.77878 14.2603 2.87309L14.2894 2.37394C12.6629 2.27906 11.0216 2.22934 9.20778 2.22934V2.72934ZM4.15526 2.87309C5.77191 2.77878 7.40348 2.72934 9.20778 2.72934V2.22934C7.39393 2.22934 5.75265 2.27906 4.12614 2.37394L4.15526 2.87309ZM1.11682 5.25798C0.930094 6.82945 0.75 8.46569 0.75 10.1423H1.25C1.25 8.49841 1.42659 6.88853 1.61333 5.31697L1.11682 5.25798ZM0.75 10.1423C0.75 11.8188 0.930094 13.4551 1.11682 15.0265L1.61333 14.9675C1.42659 13.396 1.25 11.7861 1.25 10.1423H0.75ZM17.2987 5.25798C17.1142 3.70521 15.862 2.46567 14.2894 2.37394L14.2603 2.87309C15.5796 2.95005 16.6449 3.99319 16.8022 5.31698L17.2987 5.25798ZM14.2894 17.9106C15.862 17.8188 17.1142 16.5793 17.2987 15.0265L16.8022 14.9675C16.6449 16.2913 15.5796 17.3345 14.2603 17.4114L14.2894 17.9106ZM4.12614 2.37394C2.55353 2.46567 1.30132 3.70521 1.11682 5.25798L1.61333 5.31697C1.77062 3.99319 2.83598 2.95005 4.15526 2.87309L4.12614 2.37394ZM4.15526 17.4114C2.83598 17.3345 1.77062 16.2913 1.61333 14.9675L1.11682 15.0265C1.30132 16.5793 2.55354 17.8188 4.12614 17.9106L4.15526 17.4114Z" fill="#505567"/>
<path d="M1.39453 8.35947H17.1054" stroke="#505567" stroke-width="0.5"/>
</svg>
