<svg width="20" height="20" viewBox="0 0 20 20" fill="none" xmlns="http://www.w3.org/2000/svg">
<path d="M19.0002 1.5C19.2763 1.5 19.5002 1.27614 19.5002 1C19.5002 0.723858 19.2763 0.5 19.0002 0.5V1.5ZM14.1689 6.64068C14.1072 6.90986 14.2755 7.17803 14.5447 7.23967C14.8138 7.3013 15.082 7.13305 15.1436 6.86387L14.1689 6.64068ZM17.5671 1.5H19.0002V0.5H17.5671V1.5ZM15.1302 2.44203L14.1689 6.64068L15.1436 6.86387L16.105 2.66522L15.1302 2.44203ZM17.5671 0.5C16.4014 0.5 15.3904 1.30569 15.1302 2.44203L16.105 2.66522C16.2611 1.98341 16.8677 1.5 17.5671 1.5V0.5Z" fill="#505567"/>
<path d="M1.03248 7.51013C1.19739 10.0582 1.95639 12.1531 2.52493 13.2926C2.71501 13.6737 3.02522 13.9751 3.43123 14.1034C4.10697 14.3169 5.43555 14.592 7.7957 14.592C10.1559 14.592 11.4844 14.3169 12.1602 14.1034C12.5662 13.9751 12.8764 13.6737 13.0665 13.2926C13.7078 12.0072 14.5914 9.50636 14.5914 6.51065H2C1.44772 6.51065 0.99681 6.959 1.03248 7.51013Z" fill="#F2F3F5"/>
<path d="M2.52493 13.2926L2.07752 13.5159L2.07752 13.5159L2.52493 13.2926ZM1.03248 7.51013L0.533523 7.54243L1.03248 7.51013ZM13.0665 13.2926L13.5139 13.5159L13.0665 13.2926ZM14.5914 6.51065H15.0914C15.0914 6.23451 14.8675 6.01065 14.5914 6.01065V6.51065ZM3.43123 14.1034L3.28058 14.5802L3.28058 14.5802L3.43123 14.1034ZM12.1602 14.1034L12.3108 14.5802L12.3108 14.5802L12.1602 14.1034ZM2.97234 13.0694C2.4289 11.9802 1.69142 9.94985 1.53143 7.47784L0.533523 7.54243C0.703353 10.1665 1.48388 12.326 2.07752 13.5159L2.97234 13.0694ZM13.5139 13.5159C14.1826 12.1756 15.0914 9.5985 15.0914 6.51065H14.0914C14.0914 9.41422 13.233 11.8389 12.6191 13.0694L13.5139 13.5159ZM2 7.01065H14.5914V6.01065H2V7.01065ZM3.28058 14.5802C4.01691 14.8128 5.39856 15.092 7.7957 15.092V14.092C5.47254 14.092 4.19704 13.821 3.58187 13.6267L3.28058 14.5802ZM7.7957 15.092C10.1928 15.092 11.5745 14.8128 12.3108 14.5802L12.0095 13.6267C11.3944 13.821 10.1189 14.092 7.7957 14.092V15.092ZM12.6191 13.0694C12.4782 13.3519 12.2641 13.5462 12.0095 13.6267L12.3108 14.5802C12.8683 14.404 13.2746 13.9954 13.5139 13.5159L12.6191 13.0694ZM1.53143 7.47784C1.5158 7.23619 1.71484 7.01065 2 7.01065V6.01065C1.18059 6.01065 0.477824 6.68182 0.533523 7.54243L1.53143 7.47784ZM2.07752 13.5159C2.31679 13.9954 2.7231 14.404 3.28058 14.5802L3.58187 13.6267C3.32735 13.5462 3.11324 13.3519 2.97234 13.0694L2.07752 13.5159Z" fill="#505567"/>
<path d="M2.83623 19.0013C3.24198 19.0013 3.5709 18.6723 3.5709 18.2666C3.5709 17.8608 3.24198 17.5319 2.83623 17.5319C2.43049 17.5319 2.10156 17.8608 2.10156 18.2666C2.10156 18.6723 2.43049 19.0013 2.83623 19.0013Z" fill="#505567" stroke="#505567" stroke-linecap="round" stroke-linejoin="round"/>
<path d="M12.387 19.0013C12.7928 19.0013 13.1217 18.6723 13.1217 18.2666C13.1217 17.8608 12.7928 17.5319 12.387 17.5319C11.9813 17.5319 11.6523 17.8608 11.6523 18.2666C11.6523 18.6723 11.9813 19.0013 12.387 19.0013Z" fill="#505567" stroke="#505567" stroke-linecap="round" stroke-linejoin="round"/>
</svg>
