<svg width="18" height="18" viewBox="0 0 18 18" fill="none" xmlns="http://www.w3.org/2000/svg">
<path d="M6.95433 15.635L6.72448 15.7083C6.75765 15.7888 6.82761 15.8515 6.91058 15.8751C6.99355 15.8986 7.07837 15.8798 7.1362 15.825L6.95433 15.635ZM2.09214 10.8552L1.90459 10.6708C1.84804 10.7286 1.8282 10.8145 1.85197 10.8987C1.87575 10.9829 1.93985 11.0536 2.02191 11.0863L2.09214 10.8552ZM14.9837 8.03297L14.8018 7.84297L14.9837 8.03297ZM2.27969 11.0397L10.0901 3.06756L9.71498 2.69874L1.90459 10.6708L2.27969 11.0397ZM14.8018 7.84297L6.77246 15.445L7.1362 15.825L15.1655 8.22297L14.8018 7.84297ZM2.09214 10.8552C2.02191 11.0863 2.02187 11.0863 2.02184 11.0862C2.02184 11.0862 2.02182 11.0862 2.02181 11.0862C2.02181 11.0862 2.02182 11.0862 2.02187 11.0863C2.02196 11.0863 2.02215 11.0864 2.02245 11.0865C2.02304 11.0867 2.02405 11.0871 2.02546 11.0877C2.02828 11.0888 2.03271 11.0906 2.03868 11.0931C2.05062 11.098 2.06874 11.1055 2.09248 11.1157C2.13998 11.1359 2.20992 11.1664 2.29796 11.2068C2.47416 11.2877 2.7222 11.4081 3.00742 11.565C3.58058 11.8802 4.29164 12.3363 4.8729 12.9077L5.20353 12.5701C4.56889 11.9462 3.8069 11.4605 3.211 11.1327C2.91169 10.9681 2.65119 10.8416 2.46499 10.7561C2.37183 10.7134 2.2971 10.6808 2.24523 10.6587C2.21929 10.6476 2.19904 10.6392 2.18505 10.6334C2.17806 10.6306 2.17262 10.6284 2.16882 10.6268C2.16692 10.626 2.16542 10.6254 2.16434 10.625C2.1638 10.6248 2.16337 10.6246 2.16304 10.6245C2.16287 10.6244 2.16273 10.6244 2.16262 10.6243C2.16257 10.6243 2.1625 10.6243 2.16247 10.6243C2.16241 10.6242 2.16236 10.6242 2.09214 10.8552ZM4.8729 12.9077C5.45403 13.479 5.91767 14.1776 6.23807 14.7405C6.39753 15.0207 6.51986 15.2644 6.60208 15.4374C6.64317 15.5239 6.67416 15.5925 6.6947 15.6391C6.70496 15.6624 6.71261 15.6802 6.71759 15.6919C6.72008 15.6978 6.7219 15.7021 6.72305 15.7048C6.72363 15.7062 6.72404 15.7072 6.72427 15.7078C6.72439 15.7081 6.72447 15.7082 6.72451 15.7083C6.72452 15.7084 6.72453 15.7084 6.72453 15.7084C6.72452 15.7084 6.72451 15.7083 6.72451 15.7083C6.7245 15.7083 6.72448 15.7083 6.95433 15.635C7.18418 15.5618 7.18416 15.5617 7.18413 15.5617C7.18412 15.5617 7.1841 15.5616 7.18407 15.5615C7.18403 15.5614 7.18397 15.5613 7.1839 15.5611C7.18376 15.5608 7.18359 15.5604 7.18336 15.5598C7.18292 15.5588 7.1823 15.5573 7.18152 15.5554C7.17994 15.5516 7.17769 15.5463 7.17475 15.5394C7.16888 15.5256 7.1603 15.5056 7.14904 15.4801C7.12653 15.429 7.09332 15.3555 7.04976 15.2638C6.9627 15.0806 6.83398 14.8243 6.6664 14.5298C6.33272 13.9436 5.8383 13.1941 5.20353 12.5701L4.8729 12.9077ZM15.1655 8.22297C16.5972 6.86749 16.4865 4.468 14.9213 2.92935L14.5907 3.26692C15.9437 4.597 16.0394 6.67123 14.8018 7.84297L15.1655 8.22297ZM10.0901 3.06756C11.2546 1.8789 13.2695 1.96815 14.5907 3.26692L14.9213 2.92935C13.393 1.42693 11.0621 1.32369 9.71498 2.69874L10.0901 3.06756Z" fill="#505567"/>
<path d="M6.95085 15.641L7.03686 15.8836C7.10125 15.867 7.15312 15.8238 7.18033 15.7642C7.20753 15.7045 7.20769 15.6335 7.18076 15.568L6.95085 15.641ZM2.09306 10.8568L2.16349 10.6258C2.09855 10.5999 2.02865 10.6005 1.96977 10.6274C1.91089 10.6543 1.86806 10.7052 1.85106 10.7685L2.09306 10.8568ZM1.24904 17.1086L1.16303 16.866L1.24904 17.1086ZM6.86483 15.3984L1.16303 16.866L1.33506 17.3512L7.03686 15.8836L6.86483 15.3984ZM0.835018 16.5352L2.33505 10.9451L1.85106 10.7685L0.351031 16.3586L0.835018 16.5352ZM2.09306 10.8568C2.02262 11.0878 2.02258 11.0877 2.02255 11.0877C2.02255 11.0877 2.02252 11.0877 2.02252 11.0877C2.02251 11.0877 2.02253 11.0877 2.02257 11.0877C2.02266 11.0878 2.02286 11.0879 2.02316 11.088C2.02375 11.0882 2.02475 11.0886 2.02616 11.0892C2.02898 11.0903 2.03341 11.0921 2.03938 11.0946C2.05132 11.0995 2.06943 11.1071 2.09316 11.1172C2.14064 11.1375 2.21055 11.168 2.29856 11.2086C2.47468 11.2896 2.72261 11.4102 3.00769 11.5673C3.58056 11.8831 4.29119 12.3398 4.87193 12.9117L5.20287 12.5745C4.5688 11.95 3.80726 11.4636 3.21166 11.1353C2.91251 10.9704 2.65212 10.8437 2.466 10.758C2.37288 10.7152 2.29818 10.6825 2.24633 10.6604C2.2204 10.6493 2.20016 10.6408 2.18618 10.6351C2.17918 10.6322 2.17375 10.63 2.16995 10.6284C2.16805 10.6277 2.16655 10.6271 2.16547 10.6266C2.16493 10.6264 2.1645 10.6262 2.16417 10.6261C2.164 10.626 2.16387 10.626 2.16375 10.6259C2.1637 10.6259 2.16363 10.6259 2.1636 10.6259C2.16355 10.6259 2.16349 10.6258 2.09306 10.8568ZM4.87193 12.9117C5.45253 13.4836 5.91553 14.1826 6.23541 14.7459C6.39461 15.0262 6.51672 15.2699 6.59878 15.443C6.63979 15.5295 6.67071 15.5982 6.69121 15.6449C6.70145 15.6682 6.70908 15.6859 6.71405 15.6976C6.71654 15.7035 6.71836 15.7078 6.7195 15.7106C6.72008 15.712 6.72048 15.7129 6.72072 15.7135C6.72084 15.7138 6.72092 15.714 6.72095 15.7141C6.72097 15.7141 6.72098 15.7141 6.72097 15.7141C6.72097 15.7141 6.72096 15.7141 6.72096 15.7141C6.72095 15.7141 6.72093 15.714 6.95085 15.641C7.18076 15.568 7.18074 15.5679 7.18072 15.5679C7.18071 15.5678 7.18068 15.5678 7.18066 15.5677C7.18061 15.5676 7.18055 15.5675 7.18048 15.5673C7.18035 15.567 7.18017 15.5665 7.17995 15.566C7.1795 15.5649 7.17889 15.5634 7.17811 15.5616C7.17654 15.5578 7.17428 15.5524 7.17136 15.5455C7.1655 15.5317 7.15693 15.5118 7.1457 15.4862C7.12324 15.4351 7.0901 15.3616 7.04662 15.2698C6.95972 15.0865 6.83124 14.8301 6.66393 14.5355C6.33079 13.949 5.83707 13.1991 5.20287 12.5745L4.87193 12.9117ZM1.16303 16.866C0.973731 16.9148 0.784405 16.7238 0.835018 16.5352L0.351031 16.3586C0.199192 16.9245 0.76717 17.4974 1.33506 17.3512L1.16303 16.866Z" fill="#505567"/>
</svg>
