<svg width="24" height="24" viewBox="0 0 24 24" fill="none" xmlns="http://www.w3.org/2000/svg">
<path fill-rule="evenodd" clip-rule="evenodd" d="M9.95433 18.6351L17.9837 11.033C19.3183 9.76942 19.2151 7.53256 17.756 6.09819C16.3313 4.69761 14.1584 4.60136 12.9025 5.88321L5.09214 13.8553C5.09214 13.8553 6.82231 14.5437 8.03821 15.739C9.25412 16.9342 9.95433 18.6351 9.95433 18.6351Z" fill="#F2F3F5"/>
<path d="M9.95433 18.6351L9.26479 18.8548C9.36428 19.0965 9.57416 19.2846 9.82307 19.3552C10.072 19.4258 10.3264 19.3693 10.4999 19.2051L9.95433 18.6351ZM5.09214 13.8553L4.52948 13.3021C4.35985 13.4752 4.30032 13.733 4.37165 13.9856C4.44297 14.2382 4.63527 14.4504 4.88146 14.5484L5.09214 13.8553ZM17.9837 11.033L17.4381 10.463L17.9837 11.033ZM5.65479 14.4085L13.4652 6.43645L12.3399 5.32998L4.52948 13.3021L5.65479 14.4085ZM17.4381 10.463L9.40873 18.0651L10.4999 19.2051L18.5293 11.603L17.4381 10.463ZM5.09214 13.8553C4.88146 14.5484 4.88133 14.5483 4.88121 14.5483C4.88118 14.5483 4.88107 14.5482 4.881 14.5482C4.88088 14.5482 4.88078 14.5481 4.8807 14.5481C4.88055 14.548 4.8805 14.548 4.88056 14.548C4.88067 14.5481 4.88118 14.5483 4.8821 14.5487C4.88393 14.5494 4.88735 14.5508 4.8923 14.5528C4.90221 14.5569 4.9182 14.5635 4.93974 14.5727C4.98285 14.5911 5.04801 14.6195 5.13093 14.6576C5.29714 14.7339 5.53271 14.8481 5.80385 14.9973C6.35426 15.3 7.01438 15.7264 7.54227 16.2453L8.53416 15.2326C7.84614 14.5562 7.03322 14.0408 6.41458 13.7005C6.10119 13.5281 5.82822 13.3956 5.63202 13.3055C5.53374 13.2604 5.45423 13.2257 5.39797 13.2017C5.36983 13.1897 5.34746 13.1804 5.33143 13.1738C5.32341 13.1705 5.31697 13.1679 5.31218 13.166C5.30978 13.165 5.3078 13.1642 5.30623 13.1636C5.30545 13.1633 5.30478 13.163 5.30421 13.1628C5.30392 13.1627 5.30366 13.1626 5.30343 13.1625C5.30331 13.1624 5.30316 13.1624 5.3031 13.1623C5.30295 13.1623 5.30281 13.1622 5.09214 13.8553ZM7.54227 16.2453C8.06975 16.7638 8.50262 17.4117 8.80974 17.9513C8.96109 18.2172 9.07703 18.4482 9.15441 18.611C9.19301 18.6923 9.22179 18.7561 9.24035 18.7982C9.24963 18.8193 9.25633 18.8349 9.26043 18.8445C9.26247 18.8493 9.26386 18.8526 9.26459 18.8543C9.26496 18.8552 9.26515 18.8557 9.26519 18.8558C9.2652 18.8558 9.26518 18.8557 9.26511 18.8556C9.26508 18.8555 9.26503 18.8554 9.26498 18.8553C9.26495 18.8552 9.2649 18.8551 9.26489 18.8551C9.26484 18.8549 9.26479 18.8548 9.95433 18.6351C10.6439 18.4154 10.6438 18.4152 10.6438 18.4151C10.6437 18.415 10.6437 18.4149 10.6436 18.4148C10.6435 18.4145 10.6434 18.4143 10.6433 18.414C10.6431 18.4134 10.6428 18.4127 10.6425 18.4119C10.6418 18.4104 10.641 18.4084 10.64 18.406C10.638 18.4012 10.6353 18.3949 10.6319 18.3869C10.6252 18.371 10.6156 18.3489 10.6034 18.3211C10.5789 18.2656 10.5435 18.1872 10.4974 18.0903C10.4055 17.8969 10.2704 17.6279 10.0947 17.3192C9.74777 16.7096 9.22258 15.9094 8.53416 15.2326L7.54227 16.2453ZM18.5293 11.603C20.155 10.0638 20.0293 7.33907 18.252 5.59185L17.2601 6.60454C18.4009 7.72605 18.4816 9.47502 17.4381 10.463L18.5293 11.603ZM13.4652 6.43645C14.4471 5.43418 16.1461 5.50944 17.2601 6.60454L18.252 5.59185C16.5165 3.88578 13.8696 3.76853 12.3399 5.32998L13.4652 6.43645Z" fill="#505567"/>
<path d="M4.24904 20.1087L9.95085 18.6411C9.95085 18.6411 9.2522 16.9396 8.0374 15.7432C6.8226 14.5468 5.09306 13.8569 5.09306 13.8569L3.59302 19.4469C3.4918 19.8242 3.87045 20.2061 4.24904 20.1087Z" fill="white"/>
<path d="M9.95085 18.6411L10.2089 19.3688C10.4021 19.3191 10.5577 19.1896 10.6393 19.0105C10.7209 18.8315 10.7214 18.6187 10.6406 18.422L9.95085 18.6411ZM4.24904 20.1087L4.50709 20.8365L4.50709 20.8365L4.24904 20.1087ZM3.59302 19.4469L2.86704 19.1821L2.86704 19.1821L3.59302 19.4469ZM5.09306 13.8569L5.30437 13.164C5.10954 13.0863 4.89984 13.0879 4.7232 13.1686C4.54655 13.2493 4.41805 13.402 4.36708 13.592L5.09306 13.8569ZM8.0374 15.7432L7.54098 16.2491L8.0374 15.7432ZM9.6928 17.9133L3.991 19.3809L4.50709 20.8365L10.2089 19.3688L9.6928 17.9133ZM4.319 19.7118L5.81904 14.1217L4.36708 13.592L2.86704 19.1821L4.319 19.7118ZM5.09306 13.8569C4.88174 14.5498 4.88161 14.5497 4.88149 14.5497C4.88146 14.5496 4.88135 14.5496 4.88128 14.5496C4.88116 14.5495 4.88106 14.5495 4.88098 14.5494C4.88083 14.5494 4.88078 14.5494 4.88084 14.5494C4.88095 14.5494 4.88146 14.5496 4.88238 14.55C4.88421 14.5508 4.88763 14.5522 4.89258 14.5542C4.90248 14.5583 4.91846 14.5649 4.93999 14.5741C4.98309 14.5925 5.04822 14.621 5.13111 14.6591C5.29725 14.7356 5.53271 14.8501 5.80371 14.9995C6.35385 15.3027 7.01358 15.7297 7.54098 16.2491L8.53381 15.2373C7.84641 14.5603 7.03397 14.0441 6.41564 13.7033C6.10241 13.5306 5.82956 13.3978 5.63344 13.3076C5.53521 13.2624 5.45573 13.2276 5.3995 13.2036C5.37136 13.1916 5.349 13.1822 5.33297 13.1756C5.32496 13.1723 5.31852 13.1697 5.31373 13.1677C5.31134 13.1668 5.30935 13.166 5.30779 13.1653C5.30701 13.165 5.30633 13.1648 5.30576 13.1645C5.30548 13.1644 5.30522 13.1643 5.30499 13.1642C5.30487 13.1642 5.30472 13.1641 5.30466 13.1641C5.30451 13.164 5.30437 13.164 5.09306 13.8569ZM7.54098 16.2491C8.06799 16.7681 8.50026 17.4163 8.80689 17.9562C8.95799 18.2223 9.07371 18.4534 9.15094 18.6163C9.18948 18.6976 9.21819 18.7614 9.23672 18.8035C9.24597 18.8246 9.25266 18.8402 9.25675 18.8498C9.25879 18.8546 9.26018 18.8579 9.2609 18.8597C9.26127 18.8605 9.26147 18.861 9.2615 18.8611C9.26151 18.8611 9.26149 18.8611 9.26142 18.8609C9.26139 18.8608 9.26135 18.8607 9.26129 18.8606C9.26126 18.8605 9.26122 18.8604 9.2612 18.8604C9.26115 18.8603 9.2611 18.8601 9.95085 18.6411C10.6406 18.422 10.6405 18.4218 10.6405 18.4217C10.6405 18.4216 10.6404 18.4215 10.6403 18.4213C10.6402 18.4211 10.6401 18.4208 10.64 18.4206C10.6398 18.42 10.6395 18.4193 10.6392 18.4185C10.6385 18.417 10.6377 18.415 10.6367 18.4126C10.6347 18.4078 10.632 18.4014 10.6287 18.3935C10.6219 18.3776 10.6124 18.3555 10.6002 18.3277C10.5758 18.2721 10.5404 18.1936 10.4945 18.0967C10.4027 17.9032 10.2679 17.6342 10.0925 17.3253C9.74606 16.7154 9.22161 15.9147 8.53381 15.2373L7.54098 16.2491ZM3.991 19.3809C4.18029 19.3322 4.36962 19.5232 4.319 19.7118L2.86704 19.1821C2.61398 20.1252 3.56061 21.0801 4.50709 20.8365L3.991 19.3809Z" fill="#505567"/>
</svg>
