<svg width="18" height="18" viewBox="0 0 18 18" fill="none" xmlns="http://www.w3.org/2000/svg">
<path d="M16.6542 13.8789L15.9089 13.7958L16.6542 13.8789ZM4.09625 1.36264L4.18236 2.10768L4.09625 1.36264ZM4.09625 16.636L4.01014 17.3811L4.09625 16.636ZM8.99958 16.2489C7.3711 16.2489 5.77134 16.0746 4.18236 15.891L4.01014 17.3811C5.59525 17.5643 7.27415 17.7489 8.99958 17.7489V16.2489ZM13.8168 15.891C12.2278 16.0746 10.6281 16.2489 8.99958 16.2489V17.7489C10.725 17.7489 12.4039 17.5643 13.989 17.3811L13.8168 15.891ZM17.3996 13.9621C17.5758 12.3829 17.7492 10.7142 17.7492 8.99933H16.2492C16.2492 10.6219 16.0851 12.216 15.9089 13.7958L17.3996 13.9621ZM17.7492 8.99933C17.7492 7.28443 17.5758 5.61581 17.3996 4.0366L15.9089 4.20292C16.0851 5.78263 16.2492 7.37674 16.2492 8.99933H17.7492ZM8.99958 1.74976C10.6281 1.74976 12.2278 1.92404 13.8168 2.10768L13.989 0.617603C12.4039 0.434401 10.725 0.249756 8.99958 0.249756V1.74976ZM4.18236 2.10768C5.77134 1.92403 7.3711 1.74976 8.99958 1.74976V0.249756C7.27415 0.249756 5.59525 0.434401 4.01014 0.617602L4.18236 2.10768ZM0.599548 4.0366C0.42336 5.61581 0.25 7.28443 0.25 8.99933H1.75C1.75 7.37674 1.91405 5.78263 2.0903 4.20292L0.599548 4.0366ZM0.25 8.99933C0.25 10.7142 0.42336 12.3829 0.599548 13.9621L2.0903 13.7958C1.91405 12.216 1.75 10.6219 1.75 8.99933H0.25ZM17.3996 4.0366C17.2 2.24774 15.7738 0.823875 13.989 0.617603L13.8168 2.10768C14.9106 2.23411 15.7871 3.11191 15.9089 4.20292L17.3996 4.0366ZM13.989 17.3811C15.7738 17.1748 17.2 15.7509 17.3996 13.9621L15.9089 13.7958C15.7871 14.8868 14.9106 15.7646 13.8168 15.891L13.989 17.3811ZM4.01014 0.617602C2.22541 0.823875 0.799126 2.24774 0.599548 4.0366L2.0903 4.20292C2.21202 3.11191 3.08851 2.23411 4.18236 2.10768L4.01014 0.617602ZM4.18236 15.891C3.08851 15.7646 2.21202 14.8868 2.0903 13.7958L0.599548 13.9621C0.799126 15.7509 2.22541 17.1748 4.01014 17.3811L4.18236 15.891Z" fill="#0093A2"/>
<path d="M9.75 5.79907C9.75 5.38486 9.41421 5.04907 9 5.04907C8.58579 5.04907 8.25 5.38486 8.25 5.79907L9.75 5.79907ZM8.25 12.1995C8.25 12.6137 8.58579 12.9495 9 12.9495C9.41421 12.9495 9.75 12.6137 9.75 12.1995L8.25 12.1995ZM8.25 5.79907L8.25 12.1995L9.75 12.1995L9.75 5.79907L8.25 5.79907Z" fill="#0093A2"/>
<path d="M12.2031 9.74854C12.6173 9.74854 12.9531 9.41275 12.9531 8.99854C12.9531 8.58432 12.6173 8.24854 12.2031 8.24854L12.2031 9.74854ZM5.80268 8.24853C5.38847 8.24853 5.05268 8.58432 5.05268 8.99853C5.05268 9.41275 5.38847 9.74853 5.80268 9.74853L5.80268 8.24853ZM12.2031 8.24854L5.80268 8.24853L5.80268 9.74853L12.2031 9.74854L12.2031 8.24854Z" fill="#0093A2"/>
</svg>
