<svg width="25" height="24" viewBox="0 0 25 24" fill="none" xmlns="http://www.w3.org/2000/svg">
<path d="M18.0689 10.205C18.1829 10.6032 18.5981 10.8336 18.9964 10.7196C19.3946 10.6056 19.625 10.1904 19.511 9.7922L18.0689 10.205ZM17.09 7.0486L17.6301 6.52824L17.6295 6.52764L17.09 7.0486ZM13.611 5.1336L13.7625 4.39907L13.7611 4.39878L13.611 5.1336ZM9.68996 5.5336L9.39453 4.84424L9.39379 4.84456L9.68996 5.5336ZM6.64396 8.1096L6.01365 7.70314L6.01364 7.70315L6.64396 8.1096ZM7.48796 16.9486L8.03029 16.4306L8.02996 16.4302L7.48796 16.9486ZM16.057 17.8196L16.484 18.4362L16.4841 18.4361L16.057 17.8196ZM19.2536 14.9554C19.407 14.5706 19.2195 14.1343 18.8347 13.9809C18.45 13.8275 18.0137 14.0151 17.8603 14.3998L19.2536 14.9554ZM18.0641 9.80996C17.9599 10.2109 18.2004 10.6203 18.6013 10.7245C19.0022 10.8287 19.4117 10.5881 19.5158 10.1872L18.0641 9.80996ZM20.2258 7.45525C20.33 7.05435 20.0895 6.6449 19.6886 6.54072C19.2877 6.43653 18.8783 6.67706 18.7741 7.07796L20.2258 7.45525ZM18.5902 10.7215C18.9894 10.8318 19.4025 10.5976 19.5129 10.1984C19.6232 9.79911 19.389 9.38602 18.9897 9.2757L18.5902 10.7215ZM16.3407 8.5437C15.9415 8.43337 15.5284 8.66759 15.418 9.06684C15.3077 9.46609 15.5419 9.87919 15.9412 9.98951L16.3407 8.5437ZM19.511 9.7922C19.1602 8.56683 18.5144 7.44613 17.6301 6.52824L16.5498 7.56897C17.264 8.31028 17.7856 9.21537 18.0689 10.205L19.511 9.7922ZM17.6295 6.52764C16.5842 5.44503 15.2364 4.70315 13.7625 4.39907L13.4594 5.86813C14.6375 6.11119 15.7148 6.7042 16.5504 7.56956L17.6295 6.52764ZM13.7611 4.39878C12.2942 4.09906 10.7707 4.25448 9.39453 4.84424L9.98538 6.22297C11.0807 5.75356 12.2933 5.62986 13.4608 5.86842L13.7611 4.39878ZM9.39379 4.84456C8.00796 5.44022 6.83115 6.43545 6.01365 7.70314L7.27426 8.51607C7.93013 7.49901 8.87429 6.70054 9.98612 6.22265L9.39379 4.84456ZM6.01364 7.70315C4.02854 10.7816 4.41413 14.8198 6.94595 17.467L8.02996 16.4302C5.97778 14.2845 5.66523 11.0113 7.27427 8.51605L6.01364 7.70315ZM6.94562 17.4666C9.45364 20.0923 13.4989 20.5035 16.484 18.4362L15.63 17.203C13.2516 18.8501 10.0286 18.5225 8.03029 16.4306L6.94562 17.4666ZM16.4841 18.4361C17.7293 17.5732 18.6926 16.3625 19.2536 14.9554L17.8603 14.3998C17.4084 15.5332 16.6326 16.5082 15.6298 17.2032L16.4841 18.4361ZM19.5158 10.1872L20.2258 7.45525L18.7741 7.07796L18.0641 9.80996L19.5158 10.1872ZM18.9897 9.2757L16.3407 8.5437L15.9412 9.98951L18.5902 10.7215L18.9897 9.2757Z" fill="#505567"/>
</svg>
