<svg width="17" height="16" viewBox="0 0 17 16" fill="none" xmlns="http://www.w3.org/2000/svg">
<path fill-rule="evenodd" clip-rule="evenodd" d="M10.349 4.515L8.5 1L6.651 4.515C6.52038 4.77186 6.33131 4.99449 6.099 5.165C5.86556 5.33638 5.59543 5.45107 5.31 5.5L1.5 6.247L4.16 9.428C4.52377 9.82668 4.69542 10.3643 4.63 10.9L4.124 15L7.632 13.3C7.90262 13.1689 8.19931 13.1006 8.5 13.1C8.78212 13.1009 9.05991 13.1694 9.31 13.3L12.9 14.895L12.394 10.844C12.33 10.3095 12.502 9.77355 12.865 9.376L15.5 6.247L11.69 5.5C11.4042 5.45122 11.1337 5.33652 10.9 5.165C10.6681 4.99438 10.4793 4.77175 10.349 4.515Z" fill="#D0D2D7" stroke="#D0D2D7" stroke-width="1.5" stroke-linecap="round" stroke-linejoin="round"/>
</svg>
