<svg width="18" height="18" viewBox="0 0 18 18" fill="none" xmlns="http://www.w3.org/2000/svg">
<path d="M1 4.83313H17.0011" stroke="#505567" stroke-width="0.5" stroke-linecap="round"/>
<path d="M14.7477 4.83313H3.24529L3.16298 6.32142C3.00526 9.17294 3.13926 12.0331 3.56291 14.8574C3.74765 16.089 4.80563 17.0001 6.05101 17.0001H11.942C13.1874 17.0001 14.2453 16.089 14.4301 14.8574C14.8537 12.0331 14.9877 9.17294 14.83 6.32142L14.7477 4.83313Z" fill="#F2F3F5"/>
<path d="M3.24529 4.83313V4.58313C3.11259 4.58313 3.003 4.68682 2.99567 4.81932L3.24529 4.83313ZM14.7477 4.83313L14.9973 4.81932C14.99 4.68682 14.8804 4.58313 14.7477 4.58313V4.83313ZM14.83 6.32142L15.0796 6.30762L15.0796 6.30762L14.83 6.32142ZM3.16298 6.32142L2.91336 6.30762L3.16298 6.32142ZM3.56291 14.8574L3.31567 14.8945L3.56291 14.8574ZM14.4301 14.8574L14.6773 14.8945L14.4301 14.8574ZM3.24529 5.08313H14.7477V4.58313H3.24529V5.08313ZM11.942 16.7501H6.05101V17.2501H11.942V16.7501ZM14.4981 4.84694L14.5804 6.33523L15.0796 6.30762L14.9973 4.81932L14.4981 4.84694ZM3.41259 6.33523L3.49491 4.84694L2.99567 4.81932L2.91336 6.30762L3.41259 6.33523ZM3.81014 14.8203C3.38902 12.0129 3.25582 9.16975 3.41259 6.33523L2.91336 6.30762C2.7547 9.17614 2.8895 12.0534 3.31567 14.8945L3.81014 14.8203ZM14.5804 6.33523C14.7372 9.16975 14.604 12.0129 14.1828 14.8203L14.6773 14.8945C15.1035 12.0534 15.2383 9.17613 15.0796 6.30762L14.5804 6.33523ZM6.05101 16.7501C4.92938 16.7501 3.97652 15.9295 3.81014 14.8203L3.31567 14.8945C3.51877 16.2485 4.68188 17.2501 6.05101 17.2501V16.7501ZM11.942 17.2501C13.3111 17.2501 14.4742 16.2485 14.6773 14.8945L14.1828 14.8203C14.0165 15.9295 13.0636 16.7501 11.942 16.7501V17.2501Z" fill="#505567"/>
<path d="M5.80078 4.83303V4.19401C5.80078 3.34662 6.13741 2.53393 6.73661 1.93473C7.33581 1.33553 8.14849 0.998901 8.99589 0.998901C9.84329 0.998901 10.656 1.33553 11.2552 1.93473C11.8544 2.53393 12.191 3.34662 12.191 4.19401V4.83303" stroke="#505567" stroke-width="0.5" stroke-linecap="round" stroke-linejoin="round"/>
<path d="M7.08203 8.25461V13.5515" stroke="#505567" stroke-width="0.5" stroke-linecap="round" stroke-linejoin="round"/>
<path d="M10.9141 8.25461V13.5515" stroke="#505567" stroke-width="0.5" stroke-linecap="round" stroke-linejoin="round"/>
</svg>
