<svg width="48" height="49" viewBox="0 0 48 49" fill="none" xmlns="http://www.w3.org/2000/svg">
<path d="M17.1429 11.2875C17.6951 11.2875 18.1429 10.8398 18.1429 10.2875C18.1429 9.73521 17.6951 9.28749 17.1429 9.28749V11.2875ZM30.8571 9.28749C30.3049 9.28749 29.8571 9.73521 29.8571 10.2875C29.8571 10.8398 30.3049 11.2875 30.8571 11.2875V9.28749ZM17.1429 9.28749C16.5906 9.28749 16.1429 9.73521 16.1429 10.2875C16.1429 10.8398 16.5906 11.2875 17.1429 11.2875V9.28749ZM30.8571 11.2875C31.4094 11.2875 31.8571 10.8398 31.8571 10.2875C31.8571 9.73521 31.4094 9.28749 30.8571 9.28749V11.2875ZM18.1429 10.2875C18.1429 9.73521 17.6951 9.28749 17.1429 9.28749C16.5906 9.28749 16.1429 9.73521 16.1429 10.2875H18.1429ZM16.1429 12.5732C16.1429 13.1255 16.5906 13.5732 17.1429 13.5732C17.6951 13.5732 18.1429 13.1255 18.1429 12.5732H16.1429ZM16.1429 10.2875C16.1429 10.8398 16.5906 11.2875 17.1429 11.2875C17.6951 11.2875 18.1429 10.8398 18.1429 10.2875H16.1429ZM18.1429 5.71606C18.1429 5.16378 17.6951 4.71606 17.1429 4.71606C16.5906 4.71606 16.1429 5.16378 16.1429 5.71606H18.1429ZM31.8571 10.2875C31.8571 9.73521 31.4094 9.28749 30.8571 9.28749C30.3049 9.28749 29.8571 9.73521 29.8571 10.2875H31.8571ZM29.8571 12.5732C29.8571 13.1255 30.3049 13.5732 30.8571 13.5732C31.4094 13.5732 31.8571 13.1255 31.8571 12.5732H29.8571ZM29.8571 10.2875C29.8571 10.8398 30.3049 11.2875 30.8571 11.2875C31.4094 11.2875 31.8571 10.8398 31.8571 10.2875H29.8571ZM31.8571 5.71606C31.8571 5.16378 31.4094 4.71606 30.8571 4.71606C30.3049 4.71606 29.8571 5.16378 29.8571 5.71606H31.8571ZM17.1429 9.28749C11.5411 9.28749 7.00001 13.8286 7.00001 19.4303H9.00001C9.00001 14.9332 12.6457 11.2875 17.1429 11.2875V9.28749ZM7.00001 19.4303V33.1446H9.00001V19.4303H7.00001ZM7.00001 33.1446C7.00001 38.7464 11.5411 43.2875 17.1429 43.2875V41.2875C12.6457 41.2875 9.00001 37.6418 9.00001 33.1446H7.00001ZM17.1429 43.2875H30.8571V41.2875H17.1429V43.2875ZM30.8571 43.2875C36.4589 43.2875 41 38.7464 41 33.1446H39C39 37.6418 35.3543 41.2875 30.8571 41.2875V43.2875ZM41 33.1446V19.4303H39V33.1446H41ZM41 19.4303C41 13.8286 36.4589 9.28749 30.8571 9.28749V11.2875C35.3543 11.2875 39 14.9332 39 19.4303H41ZM17.1429 11.2875L30.8571 11.2875V9.28749L17.1429 9.28749V11.2875ZM16.1429 10.2875V12.5732H18.1429V10.2875H16.1429ZM18.1429 10.2875V5.71606H16.1429V10.2875H18.1429ZM29.8571 10.2875V12.5732H31.8571V10.2875H29.8571ZM31.8571 10.2875V5.71606H29.8571V10.2875H31.8571Z" fill="#0093A2"/>
<path d="M14.8574 26.2875L19.4288 33.1446L33.1431 21.7161" stroke="#0093A2" stroke-width="2" stroke-linecap="round" stroke-linejoin="round"/>
</svg>
