<svg width="48" height="48" viewBox="0 0 48 48" fill="none" xmlns="http://www.w3.org/2000/svg">
<path d="M4 25.22H38" stroke="#E2195B" stroke-width="2" stroke-miterlimit="10" stroke-linecap="round" stroke-linejoin="round"/>
<path d="M38 20.56V34.86C37.94 40.56 36.3799 42 30.4399 42H11.5601C5.52006 42 4 40.5 4 34.54V20.56C4 15.16 5.26 13.42 10 13.14C10.48 13.12 11.0001 13.1 11.5601 13.1H30.4399C36.4799 13.1 38 14.6 38 20.56Z" stroke="#E2195B" stroke-width="2" stroke-linecap="round" stroke-linejoin="round"/>
<path d="M44 13.46V27.44C44 32.84 42.74 34.58 38 34.86V20.56C38 14.6 36.4799 13.1 30.4399 13.1H11.5601C11.0001 13.1 10.48 13.12 10 13.14C10.06 7.44 11.6201 6 17.5601 6H36.4399C42.4799 6 44 7.5 44 13.46Z" stroke="#E2195B" stroke-width="2" stroke-linecap="round" stroke-linejoin="round"/>
<path d="M10.5 35.62H13.9399" stroke="#E2195B" stroke-width="2" stroke-miterlimit="10" stroke-linecap="round" stroke-linejoin="round"/>
<path d="M18.2188 35.62H25.0988" stroke="#E2195B" stroke-width="2" stroke-miterlimit="10" stroke-linecap="round" stroke-linejoin="round"/>
</svg>
