<svg width="50" height="50" viewBox="0 0 50 50" fill="none" xmlns="http://www.w3.org/2000/svg">
<path d="M4.98828 29.0016L10.0915 20.4963C10.6788 19.5174 11.5331 18.7263 12.5542 18.2158L13.725 17.6303C14.5585 17.2136 15.4776 16.9966 16.4094 16.9966H45.0049" stroke="#E2195B" stroke-width="2" stroke-linecap="round" stroke-linejoin="round"/>
<path d="M8.99219 43.0075L20.5207 38.8418C22.1298 38.2603 23.5102 37.1786 24.4594 35.7551L30.4477 26.7755C31.3187 25.4695 31.1466 23.7302 30.0365 22.6201V22.6201C28.7508 21.3344 26.6662 21.3342 25.3802 22.6197L20.9972 27.0008H16.9955" stroke="#E2195B" stroke-width="2" stroke-linecap="round" stroke-linejoin="round"/>
<path d="M28.9628 29.0017H40.3733C42.9785 28.9543 45.0526 26.8049 45.0068 24.1997V15.7962C45.0526 13.1909 42.9785 11.0415 40.3733 10.9942H25.6303C23.0251 11.0415 20.9511 13.1909 20.9968 15.7962V15.7962V27.0008" stroke="#E2195B" stroke-width="2" stroke-linecap="round" stroke-linejoin="round"/>
</svg>
