<svg width="18" height="17" viewBox="0 0 18 17" fill="none" xmlns="http://www.w3.org/2000/svg">
<path d="M8.93749 3.76211C4.86087 -1.16387 0.556634 2.33625 0.5 6.1093C0.5 11.7263 7.32434 16.3368 8.93749 16.3368C10.5506 16.3368 17.375 11.7263 17.375 6.1093C17.3184 2.33625 13.0141 -1.16387 8.93749 3.76211Z" fill="#F2F3F5"/>
<path d="M0.5 6.1093L0 6.1018V6.1093H0.5ZM8.93749 3.76211L8.55229 4.08089C8.64727 4.19567 8.7885 4.26211 8.93749 4.26211C9.08647 4.26211 9.2277 4.19567 9.32269 4.08089L8.93749 3.76211ZM17.375 6.1093L17.8751 6.1093L17.8749 6.1018L17.375 6.1093ZM0.999944 6.11681C1.02575 4.39742 2.0243 2.76841 3.4198 2.128C4.1068 1.81273 4.90145 1.72956 5.75809 1.99735C6.62087 2.26706 7.57779 2.90336 8.55229 4.08089L9.32269 3.44333C8.25887 2.15787 7.14904 1.38444 6.05645 1.0429C4.95773 0.699435 3.90842 0.803494 3.00271 1.21914C1.21277 2.04056 0.030882 4.04813 5.6316e-05 6.1018L0.999944 6.11681ZM8.93749 15.8368C8.83282 15.8368 8.62133 15.7936 8.29824 15.6638C7.98756 15.5389 7.61261 15.3499 7.19584 15.0999C6.36267 14.6 5.38895 13.8718 4.46235 12.9709C2.59442 11.1549 1 8.71985 1 6.1093H0C0 9.11578 1.81775 11.7945 3.76527 13.6879C4.7464 14.6418 5.78124 15.4173 6.68133 15.9574C7.13119 16.2273 7.55405 16.4424 7.92534 16.5916C8.28422 16.7359 8.63886 16.8368 8.93749 16.8368V15.8368ZM17.8749 6.1018C17.8441 4.04813 16.6622 2.04056 14.8723 1.21914C13.9666 0.803494 12.9172 0.699435 11.8185 1.0429C10.7259 1.38444 9.6161 2.15787 8.55229 3.44333L9.32269 4.08089C10.2972 2.90336 11.2541 2.26706 12.1169 1.99735C12.9735 1.72956 13.7682 1.81273 14.4552 2.128C15.8507 2.76841 16.8492 4.39743 16.8751 6.11681L17.8749 6.1018ZM8.93749 16.8368C9.23611 16.8368 9.59075 16.7359 9.94963 16.5916C10.3209 16.4424 10.7438 16.2273 11.1936 15.9574C12.0937 15.4173 13.1286 14.6418 14.1097 13.6879C16.0572 11.7945 17.875 9.11578 17.875 6.1093H16.875C16.875 8.71985 15.2806 11.1549 13.4126 12.9709C12.486 13.8718 11.5123 14.6 10.6791 15.0999C10.2624 15.3499 9.88742 15.5389 9.57674 15.6638C9.25364 15.7936 9.04215 15.8368 8.93749 15.8368V16.8368Z" fill="#353949"/>
</svg>
