<svg width="16" height="17" viewBox="0 0 16 17" fill="none" xmlns="http://www.w3.org/2000/svg">
<path d="M6.37629 10.3443C6.19445 10.1364 5.87857 10.1154 5.67075 10.2972C5.46293 10.4791 5.44187 10.7949 5.62371 11.0028L6.37629 10.3443ZM7.95704 13.6694C8.13889 13.8773 8.45477 13.8983 8.66259 13.7165C8.8704 13.5346 8.89146 13.2187 8.70962 13.0109L7.95704 13.6694ZM7.83333 13.3402C7.83333 13.6163 8.05719 13.8402 8.33333 13.8402C8.60948 13.8402 8.83333 13.6163 8.83333 13.3402H7.83333ZM8.83333 2.67351C8.83333 2.39737 8.60948 2.17351 8.33333 2.17351C8.05719 2.17351 7.83333 2.39737 7.83333 2.67351H8.83333ZM7.95704 13.0109C7.7752 13.2187 7.79626 13.5346 8.00408 13.7165C8.2119 13.8983 8.52778 13.8773 8.70962 13.6694L7.95704 13.0109ZM11.043 11.0028C11.2248 10.7949 11.2037 10.4791 10.9959 10.2972C10.7881 10.1154 10.4722 10.1364 10.2904 10.3443L11.043 11.0028ZM8.70962 2.34426C8.52778 2.13644 8.2119 2.11538 8.00408 2.29722C7.79626 2.47907 7.7752 2.79495 7.95704 3.00277L8.70962 2.34426ZM10.2904 5.66943C10.4722 5.87725 10.7881 5.89831 10.9959 5.71647C11.2037 5.53463 11.2248 5.21875 11.043 5.01093L10.2904 5.66943ZM8.70962 3.00277C8.89146 2.79495 8.8704 2.47907 8.66259 2.29722C8.45477 2.11538 8.13889 2.13644 7.95704 2.34426L8.70962 3.00277ZM5.62371 5.01093C5.44187 5.21875 5.46293 5.53463 5.67075 5.71647C5.87857 5.89831 6.19445 5.87725 6.37629 5.66943L5.62371 5.01093ZM5.62371 11.0028L7.95704 13.6694L8.70962 13.0109L6.37629 10.3443L5.62371 11.0028ZM8.83333 13.3402V2.67351H7.83333L7.83333 13.3402H8.83333ZM8.70962 13.6694L11.043 11.0028L10.2904 10.3443L7.95704 13.0109L8.70962 13.6694ZM7.95704 3.00277L10.2904 5.66943L11.043 5.01093L8.70962 2.34426L7.95704 3.00277ZM7.95704 2.34426L5.62371 5.01093L6.37629 5.66943L8.70962 3.00277L7.95704 2.34426Z" fill="#505567"/>
</svg>
