<svg width="24" height="24" viewBox="0 0 24 24" fill="none" xmlns="http://www.w3.org/2000/svg">
<path d="M11.4209 20.654L10.9385 21.2282L11.4209 20.654ZM18.2503 9.87975C18.2503 12.1196 17.1694 14.3037 15.8145 16.1479C14.468 17.9807 12.912 19.395 12.097 20.0797L13.0618 21.2282C13.9243 20.5036 15.5788 19.0022 17.0233 17.036C18.4595 15.0812 19.7503 12.5828 19.7503 9.87975H18.2503ZM11.9033 20.0797C11.0883 19.395 9.53231 17.9807 8.18579 16.1479C6.83089 14.3037 5.75 12.1196 5.75 9.87975H4.25C4.25 12.5828 5.5408 15.0812 6.97696 17.036C8.42151 19.0022 10.076 20.5036 10.9385 21.2282L11.9033 20.0797ZM5.75 9.87975C5.75 6.42789 8.54828 3.62961 12.0001 3.62961V2.12961C7.71986 2.12961 4.25 5.59947 4.25 9.87975H5.75ZM12.0001 3.62961C15.452 3.62961 18.2503 6.42789 18.2503 9.87975H19.7503C19.7503 5.59947 16.2804 2.12961 12.0001 2.12961V3.62961ZM12.097 20.0797C12.0626 20.1086 12.0288 20.1179 12.0001 20.1179C11.9715 20.1179 11.9377 20.1086 11.9033 20.0797L10.9385 21.2282C11.557 21.7478 12.4433 21.7478 13.0618 21.2282L12.097 20.0797Z" fill="#505567"/>
<path d="M11.9999 12.3358C13.5834 12.3358 14.8671 11.0522 14.8671 9.46871C14.8671 7.88524 13.5834 6.60158 11.9999 6.60158C10.4165 6.60158 9.13281 7.88524 9.13281 9.46871C9.13281 11.0522 10.4165 12.3358 11.9999 12.3358Z" stroke="#505567" stroke-width="1.5" stroke-linecap="round" stroke-linejoin="round"/>
</svg>
