<svg width="20" height="21" viewBox="0 0 20 21" fill="none" xmlns="http://www.w3.org/2000/svg">
<path fill-rule="evenodd" clip-rule="evenodd" d="M11.5402 7.1044L9.99935 4.17523L8.45852 7.1044C8.34966 7.31845 8.19211 7.50398 7.99852 7.64607C7.80398 7.78888 7.57888 7.88446 7.34102 7.92523L4.16602 8.54773L6.38268 11.1986C6.68583 11.5308 6.82887 11.9788 6.77435 12.4252L6.35268 15.8419L9.27602 14.4252C9.50153 14.316 9.74878 14.259 9.99935 14.2586C10.2344 14.2593 10.4659 14.3164 10.6744 14.4252L13.666 15.7544L13.2444 12.3786C13.1911 11.9331 13.3343 11.4865 13.6369 11.1552L15.8327 8.54773L12.6577 7.92523C12.4195 7.88458 12.1941 7.789 11.9993 7.64607C11.8061 7.50388 11.6488 7.31836 11.5402 7.1044Z" fill="#0093A2" stroke="#0093A2" stroke-width="1.5" stroke-linecap="round" stroke-linejoin="round"/>
</svg>
