<svg width="50" height="48" viewBox="0 0 50 48" fill="none" xmlns="http://www.w3.org/2000/svg">
<path fill-rule="evenodd" clip-rule="evenodd" d="M24.1988 33.652C24.1504 35.9926 22.2223 37.8556 19.8813 37.8236C17.5404 37.7915 15.664 35.8763 15.6798 33.5352C15.6956 31.1941 17.5976 29.3045 19.9388 29.304C21.0803 29.3156 22.1704 29.7802 22.9693 30.5956C23.7683 31.411 24.2105 32.5104 24.1988 33.652V33.652Z" stroke="#E2195B" stroke-width="2" stroke-linecap="round" stroke-linejoin="round"/>
<path fill-rule="evenodd" clip-rule="evenodd" d="M44.4917 33.652C44.4434 35.9926 42.5152 37.8556 40.1743 37.8236C37.8333 37.7915 35.957 35.8763 35.9728 33.5352C35.9885 31.1941 37.8906 29.3045 40.2317 29.304C41.3733 29.3156 42.4634 29.7802 43.2623 30.5956C44.0612 31.411 44.5035 32.5104 44.4917 33.652V33.652Z" stroke="#E2195B" stroke-width="2" stroke-linecap="round" stroke-linejoin="round"/>
<path d="M35.468 34.652C36.0203 34.652 36.468 34.2043 36.468 33.652C36.468 33.0997 36.0203 32.652 35.468 32.652V34.652ZM24.2 32.652C23.6477 32.652 23.2 33.0997 23.2 33.652C23.2 34.2043 23.6477 34.652 24.2 34.652V32.652ZM34.476 33.652C34.476 34.2043 34.9237 34.652 35.476 34.652C36.0283 34.652 36.476 34.2043 36.476 33.652H34.476ZM36.476 23.118C36.476 22.5657 36.0283 22.118 35.476 22.118C34.9237 22.118 34.476 22.5657 34.476 23.118H36.476ZM35.476 32.652C34.9237 32.652 34.476 33.0997 34.476 33.652C34.476 34.2043 34.9237 34.652 35.476 34.652V32.652ZM35.978 34.652C36.5303 34.652 36.978 34.2043 36.978 33.652C36.978 33.0997 36.5303 32.652 35.978 32.652V34.652ZM44.4769 32.6522C43.9247 32.6639 43.4865 33.121 43.4982 33.6731C43.5099 34.2253 43.967 34.6635 44.5191 34.6518L44.4769 32.6522ZM49 28.97L49.9998 28.952C49.9989 28.8991 49.9937 28.8464 49.9845 28.7944L49 28.97ZM48.9405 22.9424C48.8435 22.3987 48.3241 22.0365 47.7804 22.1335C47.2367 22.2305 46.8745 22.7499 46.9715 23.2936L48.9405 22.9424ZM35.468 12.754C34.9157 12.754 34.468 13.2017 34.468 13.754C34.468 14.3063 34.9157 14.754 35.468 14.754V12.754ZM42.61 13.754V14.754L42.6163 14.754L42.61 13.754ZM45.8692 15.1277L45.1489 15.8215L45.8692 15.1277ZM47.12 18.436L46.121 18.3923C46.1177 18.4658 46.1226 18.5394 46.1356 18.6118L47.12 18.436ZM46.9716 23.2938C47.0686 23.8375 47.5881 24.1995 48.1318 24.1024C48.6755 24.0054 49.0375 23.4859 48.9404 22.9422L46.9716 23.2938ZM36.468 13.754C36.468 13.2017 36.0203 12.754 35.468 12.754C34.9157 12.754 34.468 13.2017 34.468 13.754H36.468ZM34.468 23.118C34.468 23.6703 34.9157 24.118 35.468 24.118C36.0203 24.118 36.468 23.6703 36.468 23.118H34.468ZM34.468 13.754C34.468 14.3063 34.9157 14.754 35.468 14.754C36.0203 14.754 36.468 14.3063 36.468 13.754H34.468ZM35.468 12.154L34.468 12.1474V12.154H35.468ZM33.34 10L33.3456 9H33.34V10ZM14.17 10V8.99999L14.1653 9.00001L14.17 10ZM12.6597 10.6339L11.9493 9.93006V9.93006L12.6597 10.6339ZM12.04 12.15H13.04L13.04 12.1453L12.04 12.15ZM12.04 31.5L13.04 31.5047V31.5H12.04ZM12.6597 33.0161L11.9493 33.7199L12.6597 33.0161ZM14.17 33.65L14.1653 34.65H14.17V33.65ZM15.672 34.65C16.2243 34.65 16.672 34.2023 16.672 33.65C16.672 33.0977 16.2243 32.65 15.672 32.65V34.65ZM35.472 22.116C34.9197 22.116 34.472 22.5637 34.472 23.116C34.472 23.6683 34.9197 24.116 35.472 24.116V22.116ZM47.96 24.116C48.5123 24.116 48.96 23.6683 48.96 23.116C48.96 22.5637 48.5123 22.116 47.96 22.116V24.116ZM1 13C0.447715 13 0 13.4477 0 14C0 14.5523 0.447715 15 1 15V13ZM7.26 15C7.81228 15 8.26 14.5523 8.26 14C8.26 13.4477 7.81228 13 7.26 13V15ZM3 19C2.44772 19 2 19.4477 2 20C2 20.5523 2.44772 21 3 21V19ZM7 21C7.55228 21 8 20.5523 8 20C8 19.4477 7.55228 19 7 19V21ZM4.22 25C3.66772 25 3.22 25.4477 3.22 26C3.22 26.5523 3.66772 27 4.22 27V25ZM7 27C7.55228 27 8 26.5523 8 26C8 25.4477 7.55228 25 7 25V27ZM35.468 32.652H24.2V34.652H35.468V32.652ZM36.476 33.652V23.118H34.476V33.652H36.476ZM35.476 34.652H35.978V32.652H35.476V34.652ZM44.5191 34.6518C47.6045 34.5865 50.0555 32.0375 49.9998 28.952L48.0002 28.9881C48.036 30.9716 46.4603 32.6103 44.4769 32.6522L44.5191 34.6518ZM49.9845 28.7944L48.9405 22.9424L46.9715 23.2936L48.0155 29.1456L49.9845 28.7944ZM35.468 14.754H42.61V12.754H35.468V14.754ZM42.6163 14.754C43.5711 14.748 44.4865 15.1338 45.1489 15.8215L46.5894 14.434C45.5469 13.3518 44.1063 12.7445 42.6037 12.754L42.6163 14.754ZM45.1489 15.8215C45.8113 16.5091 46.1627 17.4384 46.121 18.3923L48.119 18.4797C48.1847 16.9786 47.6318 15.5162 46.5894 14.434L45.1489 15.8215ZM46.1356 18.6118L46.9716 23.2938L48.9404 22.9422L48.1044 18.2602L46.1356 18.6118ZM34.468 13.754V23.118H36.468V13.754H34.468ZM36.468 13.754V12.154H34.468V13.754H36.468ZM36.468 12.1606C36.4734 11.3273 36.1474 10.526 35.5618 9.93317L34.139 11.3388C34.3517 11.554 34.47 11.8449 34.468 12.1474L36.468 12.1606ZM35.5618 9.93317C34.9762 9.34037 34.1789 9.00467 33.3456 9.00002L33.3344 11C33.6369 11.0017 33.9264 11.1236 34.139 11.3388L35.5618 9.93317ZM33.34 9H14.17V11H33.34V9ZM14.1653 9.00001C13.3326 9.00389 12.5354 9.33844 11.9493 9.93006L13.3701 11.3377C13.5829 11.1229 13.8723 11.0014 14.1747 11L14.1653 9.00001ZM11.9493 9.93006C11.3632 10.5217 11.0361 11.3219 11.04 12.1547L13.04 12.1453C13.0386 11.843 13.1573 11.5524 13.3701 11.3377L11.9493 9.93006ZM11.04 12.15V31.5H13.04V12.15H11.04ZM11.04 31.4953C11.0361 32.3281 11.3632 33.1283 11.9493 33.7199L13.3701 32.3123C13.1573 32.0976 13.0386 31.807 13.04 31.5047L11.04 31.4953ZM11.9493 33.7199C12.5354 34.3116 13.3326 34.6461 14.1653 34.65L14.1747 32.65C13.8723 32.6486 13.5829 32.5271 13.3701 32.3123L11.9493 33.7199ZM14.17 34.65H15.672V32.65H14.17V34.65ZM35.472 24.116H47.96V22.116H35.472V24.116ZM1 15H7.26V13H1V15ZM3 21H7V19H3V21ZM4.22 27H7V25H4.22V27Z" fill="#E2195B"/>
</svg>
