<svg width="16" height="17" viewBox="0 0 16 17" fill="none" xmlns="http://www.w3.org/2000/svg">
<path d="M5.66193 6.38312C5.86975 6.20128 5.89081 5.8854 5.70897 5.67758C5.52713 5.46977 5.21125 5.44871 5.00343 5.63055L5.66193 6.38312ZM2.33676 7.96388C2.12894 8.14572 2.10789 8.4616 2.28973 8.66942C2.47157 8.87724 2.78745 8.8983 2.99527 8.71646L2.33676 7.96388ZM2.66602 7.84017C2.38987 7.84017 2.16602 8.06403 2.16602 8.34017C2.16602 8.61631 2.38987 8.84017 2.66602 8.84017V7.84017ZM13.3327 8.84017C13.6088 8.84017 13.8327 8.61631 13.8327 8.34017C13.8327 8.06403 13.6088 7.84017 13.3327 7.84017V8.84017ZM2.99527 7.96388C2.78745 7.78204 2.47157 7.8031 2.28973 8.01092C2.10789 8.21873 2.12894 8.53462 2.33676 8.71646L2.99527 7.96388ZM5.00343 11.0498C5.21125 11.2316 5.52713 11.2106 5.70897 11.0028C5.89081 10.7949 5.86975 10.4791 5.66193 10.2972L5.00343 11.0498ZM13.6619 8.71646C13.8698 8.53462 13.8908 8.21873 13.709 8.01092C13.5271 7.8031 13.2112 7.78204 13.0034 7.96388L13.6619 8.71646ZM10.3368 10.2972C10.1289 10.4791 10.1079 10.7949 10.2897 11.0028C10.4716 11.2106 10.7874 11.2316 10.9953 11.0498L10.3368 10.2972ZM13.0034 8.71646C13.2112 8.8983 13.5271 8.87724 13.709 8.66942C13.8908 8.4616 13.8698 8.14572 13.6619 7.96388L13.0034 8.71646ZM10.9953 5.63055C10.7874 5.44871 10.4716 5.46977 10.2897 5.67758C10.1079 5.8854 10.1289 6.20128 10.3368 6.38312L10.9953 5.63055ZM5.00343 5.63055L2.33676 7.96388L2.99527 8.71646L5.66193 6.38312L5.00343 5.63055ZM2.66602 8.84017H13.3327V7.84017H2.66602V8.84017ZM2.33676 8.71646L5.00343 11.0498L5.66193 10.2972L2.99527 7.96388L2.33676 8.71646ZM13.0034 7.96388L10.3368 10.2972L10.9953 11.0498L13.6619 8.71646L13.0034 7.96388ZM13.6619 7.96388L10.9953 5.63055L10.3368 6.38312L13.0034 8.71646L13.6619 7.96388Z" fill="#505567"/>
</svg>
